<?xml version="1.0" encoding="UTF-8"?>
<svg version="1.1" xmlns="http://www.w3.org/2000/svg" width="376" height="90">
<path d="M0 0 C0.67260351 1.76858691 1.33788395 3.53996016 2 5.3125 C2.37125 6.29863281 2.7425 7.28476563 3.125 8.30078125 C4 11 4 11 4 14 C4.66 14.33 5.32 14.66 6 15 C6.4140625 17.28515625 6.4140625 17.28515625 6.625 20.0625 C6.69976562 20.98160156 6.77453125 21.90070312 6.8515625 22.84765625 C6.90054688 23.55792969 6.94953125 24.26820312 7 25 C7.45375 24.505 7.9075 24.01 8.375 23.5 C10 22 10 22 12 22 C11.505 18.04 11.505 18.04 11 14 C11.99 14 12.98 14 14 14 C14.1546875 15.423125 14.1546875 15.423125 14.3125 16.875 C14.68539295 20.29107501 14.68539295 20.29107501 18 22 C18.495 23.485 18.495 23.485 19 25 C22.99449862 24.22687123 26.95282997 23.32843395 30.9140625 22.40234375 C34.25474104 21.75798066 35.63932201 21.77127737 38.5625 23.625 C41.31461771 26.30655059 42.07870205 28.31480821 43 32 C43.66 32 44.32 32 45 32 C45.12375 32.804375 45.2475 33.60875 45.375 34.4375 C45.684375 35.7059375 45.684375 35.7059375 46 37 C46.66 37.33 47.32 37.66 48 38 C48.3335867 43.44858273 47.71615517 47.22331332 45 52 C42.3125 53.4375 42.3125 53.4375 40 54 C40.495 55.98 40.495 55.98 41 58 C40.01 58 39.02 58 38 58 C38.15597656 58.55429687 38.31195313 59.10859375 38.47265625 59.6796875 C38.66730469 60.40414062 38.86195312 61.12859375 39.0625 61.875 C39.35833984 62.95394531 39.35833984 62.95394531 39.66015625 64.0546875 C40 66 40 66 39 68 C38.34 68 37.68 68 37 68 C36.76539063 68.62519531 36.53078125 69.25039062 36.2890625 69.89453125 C34.6056008 72.64418536 33.46282649 72.88056045 30.375 73.6875 C16.76413461 76.92141319 -0.46545731 78.06695285 -13 71 C-14 70 -14 70 -14.0625 67.4375 C-14.041875 66.633125 -14.02125 65.82875 -14 65 C-12.35 64.34 -10.7 63.68 -9 63 C-9.33773438 62.39671875 -9.67546875 61.7934375 -10.0234375 61.171875 C-10.46945313 60.37265625 -10.91546875 59.5734375 -11.375 58.75 C-11.81585938 57.96109375 -12.25671875 57.1721875 -12.7109375 56.359375 C-14 54 -14 54 -15.0078125 51.76171875 C-15.90284272 49.73058645 -15.90284272 49.73058645 -18.5 49.0625 C-21 48 -21 48 -22.3125 45.625 C-23.72888938 40.21696783 -23.13032124 33.65957938 -20.9375 28.5 C-20.628125 28.005 -20.31875 27.51 -20 27 C-19.34 27 -18.68 27 -18 27 C-18 26.34 -18 25.68 -18 25 C-13.44674176 21.442767 -8.66311896 21 -3 21 C-3.34444881 18.52733235 -3.34444881 18.52733235 -4 16 C-4.66 15.67 -5.32 15.34 -6 15 C-6.39593121 12.15649404 -6.50849854 9.3351283 -6.65625 6.46875 C-6.7696875 5.6540625 -6.883125 4.839375 -7 4 C-7.66 3.67 -8.32 3.34 -9 3 C-2.25 0 -2.25 0 0 0 Z " fill="#805A44" transform="translate(34,0)"/>
<path d="M0 0 C2.75 -0.3125 2.75 -0.3125 6 0 C7.35386936 1.65002828 8.68678142 3.3174387 10 5 C13.13863704 5.88593998 13.13863704 5.88593998 16 6 C15.67 7.65 15.34 9.3 15 11 C12.69 11.33 10.38 11.66 8 12 C8 16.29 8 20.58 8 25 C13.01535052 24.67039784 13.01535052 24.67039784 17 22 C19.3125 22.3125 19.3125 22.3125 22 23 C22.928125 23.185625 23.85625 23.37125 24.8125 23.5625 C25.534375 23.706875 26.25625 23.85125 27 24 C24.06677021 21.9490619 24.06677021 21.9490619 20.9375 20.5 C18 19 18 19 16 17 C15.66053491 13.33377703 15.50994219 10.88677128 17.3125 7.625 C20.10218695 4.93863479 22.80856008 4.8626952 26.5 4.875 C27.2734375 4.87242188 28.046875 4.86984375 28.84375 4.8671875 C31 5 31 5 34 6 C34.625 8.875 34.625 8.875 35 12 C34.34 12.66 33.68 13.32 33 14 C30.625 13.6875 30.625 13.6875 28 13 C27.236875 12.814375 26.47375 12.62875 25.6875 12.4375 C25.130625 12.293125 24.57375 12.14875 24 12 C23.67 12.66 23.34 13.32 23 14 C23.92232422 14.16435547 23.92232422 14.16435547 24.86328125 14.33203125 C25.67152344 14.49058594 26.47976563 14.64914063 27.3125 14.8125 C28.11300781 14.96332031 28.91351563 15.11414062 29.73828125 15.26953125 C32.29684745 16.09587301 33.393861 16.85848134 35 19 C35.40439513 22.70695534 35.5094482 25.07814135 33.6875 28.375 C30.93350999 31.02699038 28.21541562 31.1566997 24.5625 31.1875 C23.80066406 31.20167969 23.03882813 31.21585938 22.25390625 31.23046875 C19.76652685 30.97612666 18.15191894 30.24017196 16 29 C15.01 29.66 14.02 30.32 13 31 C5.90829694 31.67540029 5.90829694 31.67540029 2.5625 29.1875 C-0.04503042 25.53695741 -0.23347537 22.18382727 -0.5625 17.8125 C-0.64628906 16.72582031 -0.73007812 15.63914062 -0.81640625 14.51953125 C-0.87699219 13.68808594 -0.93757813 12.85664062 -1 12 C-1.66 12 -2.32 12 -3 12 C-3.309375 12.94875 -3.61875 13.8975 -3.9375 14.875 C-5 18 -5 18 -6 20 C-9.56454416 21.37097852 -13.23355995 21.07243154 -17 21 C-16.67 22.32 -16.34 23.64 -16 25 C-12.7 24.34 -9.4 23.68 -6 23 C-5.34 24.32 -4.68 25.64 -4 27 C-5.375 29 -5.375 29 -8 31 C-12.64518373 31.7441694 -16.68064361 31.57721842 -21 29.6875 C-25.20501098 26.13952199 -25.59099835 22.76773542 -26.046875 17.5859375 C-25.97757779 13.7630414 -24.81213011 11.3343194 -23 8 C-22.34 8 -21.68 8 -21 8 C-21 7.34 -21 6.68 -21 6 C-18.22947819 5.07649273 -16.43311242 4.83670415 -13.5625 4.8125 C-12.80066406 4.79832031 -12.03882813 4.78414062 -11.25390625 4.76953125 C-9 5 -9 5 -6.88671875 6.06640625 C-4.90324289 7.31968892 -4.90324289 7.31968892 -2.25 6.125 C-1.5075 5.75375 -0.765 5.3825 0 5 C0 3.35 0 1.7 0 0 Z M-16.6875 12.5 C-17.120625 12.995 -17.55375 13.49 -18 14 C-17.34 14.66 -16.68 15.32 -16 16 C-14.68 15.34 -13.36 14.68 -12 14 C-12 13.01 -12 12.02 -12 11 C-15.00259517 10.66781808 -15.00259517 10.66781808 -16.6875 12.5 Z " fill="#FC7475" transform="translate(328,37)"/>
<path d="M0 0 C0.7734375 -0.00257812 1.546875 -0.00515625 2.34375 -0.0078125 C4.5 0.125 4.5 0.125 7.5 1.125 C9.8406065 0.84730092 12.17624308 0.51960023 14.5 0.125 C17.67218843 3.75035821 18.92902597 7.63650278 20.5 12.125 C22.44337637 9.20993545 22.77674667 8.29528308 23.0625 5 C23.5 1.125 23.5 1.125 24.5 0.125 C26.16617115 0.08436168 27.83388095 0.082279 29.5 0.125 C29.69335938 0.72828125 29.88671875 1.3315625 30.0859375 1.953125 C30.47652344 3.15195312 30.47652344 3.15195312 30.875 4.375 C31.13023437 5.16390625 31.38546875 5.9528125 31.6484375 6.765625 C32.56608073 9.45216625 32.56608073 9.45216625 34.5 13.125 C35.49 8.835 36.48 4.545 37.5 0.125 C39.48 0.125 41.46 0.125 43.5 0.125 C45.38960908 5.56086175 43.26000542 10.87185405 41.5 16.125 C39.39905714 20.44887596 37.52645157 23.44069895 33.5 26.125 C30.9375 26.0625 30.9375 26.0625 28.5 25.125 C27.1875 22.5625 27.1875 22.5625 26.5 20.125 C25.943125 20.929375 25.38625 21.73375 24.8125 22.5625 C22.5 25.125 22.5 25.125 19.9375 26.0625 C17.5 26.125 17.5 26.125 14.5 24.125 C13.62109375 21.48046875 13.62109375 21.48046875 12.9375 18.3125 C12.07698694 14.39886714 11.08673401 10.80921931 9.5 7.125 C8.63375 7.6509375 8.63375 7.6509375 7.75 8.1875 C4.21979896 9.6584171 2.20529063 8.39749865 -1.25 7.0625 C-2.36375 6.5984375 -2.36375 6.5984375 -3.5 6.125 C-0.80895996 9.44922593 2.63359286 10.50813883 6.5 12.125 C8.5 14.125 8.5 14.125 8.875 17.5 C8.5 21.125 8.5 21.125 6.625 23.5 C3.44675439 25.93042311 1.58210311 26.30454713 -2.375 26.375 C-3.23867187 26.40078125 -4.10234375 26.4265625 -4.9921875 26.453125 C-7.95024649 26.06608924 -9.29201784 25.07624005 -11.5 23.125 C-11.17 21.475 -10.84 19.825 -10.5 18.125 C-8.85 17.795 -7.2 17.465 -5.5 17.125 C-5.5 17.785 -5.5 18.445 -5.5 19.125 C-3.52 19.125 -1.54 19.125 0.5 19.125 C-0.21027344 18.77566406 -0.92054688 18.42632812 -1.65234375 18.06640625 C-2.57144531 17.61136719 -3.49054688 17.15632813 -4.4375 16.6875 C-5.35402344 16.23503906 -6.27054688 15.78257813 -7.21484375 15.31640625 C-9.5 14.125 -9.5 14.125 -10.5 13.125 C-10.703125 11.1640625 -10.703125 11.1640625 -10.75 8.75 C-10.77578125 7.95851563 -10.8015625 7.16703125 -10.828125 6.3515625 C-10.42231616 3.59785965 -9.68894879 2.79228342 -7.5 1.125 C-4.68772378 0.18757459 -2.91253156 -0.00970844 0 0 Z " fill="#FC5C5E" transform="translate(233.5,41.875)"/>
<path d="M0 0 C3.83146596 1.56096761 6.28148054 3.91411305 9 7 C9.8125 9.3125 9.8125 9.3125 10 11 C10.66 11 11.32 11 12 11 C12.12375 11.804375 12.2475 12.60875 12.375 13.4375 C12.58125 14.283125 12.7875 15.12875 13 16 C13.66 16.33 14.32 16.66 15 17 C15.3335867 22.44858273 14.71615517 26.22331332 12 31 C9.3125 32.4375 9.3125 32.4375 7 33 C7.495 34.98 7.495 34.98 8 37 C7.01 37 6.02 37 5 37 C5.15597656 37.55429687 5.31195313 38.10859375 5.47265625 38.6796875 C5.66730469 39.40414062 5.86195312 40.12859375 6.0625 40.875 C6.35833984 41.95394531 6.35833984 41.95394531 6.66015625 43.0546875 C7 45 7 45 6 47 C5.34 47 4.68 47 4 47 C3.76539063 47.62519531 3.53078125 48.25039062 3.2890625 48.89453125 C1.6056008 51.64418536 0.46282649 51.88056045 -2.625 52.6875 C-16.23586539 55.92141319 -33.46545731 57.06695285 -46 50 C-47 49 -47 49 -47.0625 46.4375 C-47.041875 45.633125 -47.02125 44.82875 -47 44 C-45.02 43.01 -43.04 42.02 -41 41 C-41 40.01 -41 39.02 -41 38 C-39.80761719 38.32355469 -38.61523438 38.64710937 -37.38671875 38.98046875 C-30.895485 40.41745943 -24.43325661 40.32980464 -17.8125 40.3125 C-16.56791016 40.32861328 -15.32332031 40.34472656 -14.04101562 40.36132812 C-12.83767578 40.36197266 -11.63433594 40.36261719 -10.39453125 40.36328125 C-9.31018799 40.36626221 -8.22584473 40.36924316 -7.10864258 40.37231445 C-3.49975892 39.94008736 -1.10455476 38.86413257 2 37 C3.79123019 34.67628693 3.79123019 34.67628693 4.9375 32 C5.35902344 31.13375 5.78054687 30.2675 6.21484375 29.375 C7.29726793 26.89509902 7.29726793 26.89509902 6 24 C4.68 24.33 3.36 24.66 2 25 C1.814375 26.423125 1.814375 26.423125 1.625 27.875 C1 31 1 31 -1 33 C-3.0625 32.8125 -3.0625 32.8125 -5 32 C-5.495 30.515 -5.495 30.515 -6 29 C-5.01 29 -4.02 29 -3 29 C-2.67 27.35 -2.34 25.7 -2 24 C1.82320557 22.57741188 4.91281305 21.75957724 9 22 C9.495 23.485 9.495 23.485 10 25 C10.33 22.36 10.66 19.72 11 17 C7.04 17.495 7.04 17.495 3 18 C6.625 15 6.625 15 10 15 C10 14.01 10 13.02 10 12 C9.34 12 8.68 12 8 12 C8 10.68 8 9.36 8 8 C7.34 8 6.68 8 6 8 C5.46375 7.34 4.9275 6.68 4.375 6 C0.8902683 3.0654891 -1.53552728 3.70236849 -6 4 C-6.495 3.01 -6.495 3.01 -7 2 C-3.535 1.505 -3.535 1.505 0 1 C0 0.67 0 0.34 0 0 Z " fill="#835F47" transform="translate(67,21)"/>
<path d="M0 0 C3.25 0.4375 3.25 0.4375 5.8125 2.5625 C9.6488934 7.69429897 11.31025424 14.4119068 13.25 20.4375 C15.46797345 16.2050369 17.11131691 11.76313379 18.8359375 7.3125 C20.30755032 4.32049162 21.66429559 2.52690797 24.25 0.4375 C27.4375 0.125 27.4375 0.125 30.25 0.4375 C31.95492881 2.14242881 31.3780442 4.28284261 31.38894653 6.55651855 C31.3869223 7.27005493 31.38489807 7.98359131 31.3828125 8.71875 C31.38376923 9.44743286 31.38472595 10.17611572 31.38571167 10.92687988 C31.38639335 12.4702971 31.38453988 14.01371717 31.38037109 15.55712891 C31.37502262 17.927474 31.38031642 20.29762959 31.38671875 22.66796875 C31.38605797 24.16406292 31.3847768 25.66015697 31.3828125 27.15625 C31.38483673 27.86978638 31.38686096 28.58332275 31.38894653 29.31848145 C31.36495191 34.32254809 31.36495191 34.32254809 30.25 35.4375 C26.785 34.9425 26.785 34.9425 23.25 34.4375 C22.92 29.4875 22.59 24.5375 22.25 19.4375 C20.6 24.3875 18.95 29.3375 17.25 34.4375 C12.25 35.4375 12.25 35.4375 9.25 33.4375 C8.08203125 30.94140625 8.08203125 30.94140625 7.0625 28 C6.71832031 27.03191406 6.37414062 26.06382813 6.01953125 25.06640625 C5.25 22.4375 5.25 22.4375 5.25 19.4375 C4.59 19.4375 3.93 19.4375 3.25 19.4375 C3.91 24.3875 4.57 29.3375 5.25 34.4375 C1.785 34.9325 1.785 34.9325 -1.75 35.4375 C-4.03222786 31.80753094 -3.99460185 28.74865499 -3.98046875 24.51953125 C-3.98001053 23.86168137 -3.97955231 23.20383148 -3.9790802 22.52604675 C-3.97606911 21.14177638 -3.96821711 19.75750906 -3.95581055 18.37329102 C-3.93747229 16.24678665 -3.93530157 14.12071608 -3.93554688 11.99414062 C-3.89402342 0.61950373 -3.89402342 0.61950373 0 0 Z " fill="#FD7D7D" transform="translate(95.75,32.5625)"/>
<path d="M0 0 C1.58246707 -0.08153933 3.16616273 -0.13943557 4.75 -0.1875 C6.07257813 -0.23970703 6.07257813 -0.23970703 7.421875 -0.29296875 C10.47610949 0.05410335 11.80564299 0.88254802 14 3 C14 3.66 14 4.32 14 5 C14.66 5 15.32 5 16 5 C16 6.32 16 7.64 16 9 C16.66 9 17.32 9 18 9 C18 9.99 18 10.98 18 12 C16.35 12.66 14.7 13.32 13 14 C14.98 14 16.96 14 19 14 C19 17.63 19 21.26 19 25 C17 22 17 22 17 19 C13.37 19.66 9.74 20.32 6 21 C6 22.65 6 24.3 6 26 C5.34 26.33 4.68 26.66 4 27 C1.4375 25.75 1.4375 25.75 -1 24 C-1.33 23.01 -1.66 22.02 -2 21 C-5.01716843 21.30834699 -5.01716843 21.30834699 -8 23 C-9.15929788 25.93581453 -9.62705566 28.87498361 -10 32 C-10.99 31.67 -11.98 31.34 -13 31 C-13.73828125 29.00390625 -13.73828125 29.00390625 -14.3125 26.5625 C-14.97027935 24.12111417 -14.97027935 24.12111417 -16 22 C-19.02884844 20.31963489 -19.02884844 20.31963489 -22 20 C-21.505 18.515 -21.505 18.515 -21 17 C-18.69 17.33 -16.38 17.66 -14 18 C-16.31 17.34 -18.62 16.68 -21 16 C-20.41463415 8.97560976 -20.41463415 8.97560976 -18.9375 5.5 C-15.8203599 3.08673025 -12.86778639 3.81284905 -9 4 C-8.67 3.67 -8.34 3.34 -8 3 C-6.845 2.855625 -5.69 2.71125 -4.5 2.5625 C-3.345 2.376875 -2.19 2.19125 -1 2 C-0.67 1.34 -0.34 0.68 0 0 Z " fill="#F7BD03" transform="translate(59,24)"/>
<path d="M0 0 C1.1328125 1.68359375 1.1328125 1.68359375 2 4 C1.2421875 6.47265625 1.2421875 6.47265625 -0.125 9.0625 C-0.56070313 9.91972656 -0.99640625 10.77695312 -1.4453125 11.66015625 C-3.78301036 15.17845026 -6.01869586 16.67289862 -10 18 C-14.53733474 18.26412427 -19.08081939 18.23154647 -23.625 18.25 C-24.87152344 18.270625 -26.11804688 18.29125 -27.40234375 18.3125 C-34.6222103 18.34299574 -40.30938364 17.75752084 -47 15 C-46.67 15.99 -46.34 16.98 -46 18 C-46.66 18.33 -47.32 18.66 -48 19 C-48.99 17.02 -49.98 15.04 -51 13 C-50.34 13 -49.68 13 -49 13 C-49.66 11.02 -50.32 9.04 -51 7 C-50.01 6.67 -49.02 6.34 -48 6 C-46.78130071 3.49552484 -46.78130071 3.49552484 -46 1 C-45.34 1 -44.68 1 -44 1 C-43.67 2.98 -43.34 4.96 -43 7 C-42.01 7 -41.02 7 -40 7 C-39.34 5.35 -38.68 3.7 -38 2 C-35.36 2.33 -32.72 2.66 -30 3 C-29.01 5.97 -28.02 8.94 -27 12 C-25.68 12 -24.36 12 -23 12 C-22.34 9.03 -21.68 6.06 -21 3 C-19.35 2.67 -17.7 2.34 -16 2 C-14.02 4.31 -12.04 6.62 -10 9 C-8.68 8.67 -7.36 8.34 -6 8 C-5.32060826 6.00428677 -4.65438441 4.00405227 -4 2 C-1.875 0.625 -1.875 0.625 0 0 Z " fill="#F4E3C0" transform="translate(73,44)"/>
<path d="M0 0 C5.71428571 0.71428571 5.71428571 0.71428571 7 2 C7.17244584 4.65254447 7.2839033 7.28166189 7.3515625 9.9375 C7.37471527 10.732771 7.39786804 11.52804199 7.42172241 12.34741211 C7.46942313 14.03199749 7.51464964 15.71665444 7.55761719 17.40136719 C7.62471995 19.98919985 7.70245289 22.57656256 7.78125 25.1640625 C7.82616267 26.79685747 7.87045447 28.42966966 7.9140625 30.0625 C7.93796051 30.84165771 7.96185852 31.62081543 7.98648071 32.42358398 C8.03017313 34.28188121 8.02053957 36.14130268 8 38 C5.95871653 40.04128347 2.03647677 39.32103654 -0.75 39.375 C-1.82507813 39.43107422 -1.82507813 39.43107422 -2.921875 39.48828125 C-6.96193861 39.55512054 -8.74401394 39.20547148 -11.9296875 36.6484375 C-15.28423666 32.35714631 -16.23180738 28.81529844 -15.9375 23.4375 C-15.31534391 18.93824926 -13.61603713 16.82227288 -10 14 C-7.04335481 12.5216774 -4.25770263 12.93967217 -1 13 C-1.01160156 12.14535156 -1.02320313 11.29070313 -1.03515625 10.41015625 C-1.04417969 9.30542969 -1.05320313 8.20070313 -1.0625 7.0625 C-1.07410156 5.96035156 -1.08570313 4.85820313 -1.09765625 3.72265625 C-1 1 -1 1 0 0 Z M-6 19 C-8.19398856 22.29098284 -8.21503664 22.84832581 -7.75 26.5625 C-7.66234375 27.34753906 -7.5746875 28.13257813 -7.484375 28.94140625 C-7.14126274 31.20964034 -7.14126274 31.20964034 -5 33 C-2.89179203 32.6814823 -2.89179203 32.6814823 -1 32 C0.29676812 27.38926889 -0.28890861 23.66159911 -1 19 C-3.41619823 18.74969023 -3.41619823 18.74969023 -6 19 Z " fill="#FC6465" transform="translate(171,29)"/>
<path d="M0 0 C0.99 0.33 1.98 0.66 3 1 C2.34 1 1.68 1 1 1 C1 3.31 1 5.62 1 8 C0.01 8.495 0.01 8.495 -1 9 C-0.34 9.33 0.32 9.66 1 10 C1 14.62 1 19.24 1 24 C0.67 24 0.34 24 0 24 C-0.33 20.04 -0.66 16.08 -1 12 C-1.66 12 -2.32 12 -3 12 C-3.309375 12.94875 -3.61875 13.8975 -3.9375 14.875 C-5 18 -5 18 -6 20 C-9.56454416 21.37097852 -13.23355995 21.07243154 -17 21 C-16.67 22.32 -16.34 23.64 -16 25 C-12.7 24.34 -9.4 23.68 -6 23 C-5.34 24.32 -4.68 25.64 -4 27 C-5.375 29 -5.375 29 -8 31 C-12.64518373 31.7441694 -16.68064361 31.57721842 -21 29.6875 C-25.20501098 26.13952199 -25.59099835 22.76773542 -26.046875 17.5859375 C-25.97757779 13.7630414 -24.81213011 11.3343194 -23 8 C-22.34 8 -21.68 8 -21 8 C-21 7.34 -21 6.68 -21 6 C-18.22947819 5.07649273 -16.43311242 4.83670415 -13.5625 4.8125 C-12.80066406 4.79832031 -12.03882813 4.78414062 -11.25390625 4.76953125 C-9 5 -9 5 -6.88671875 6.06640625 C-4.90324289 7.31968892 -4.90324289 7.31968892 -2.25 6.125 C-1.5075 5.75375 -0.765 5.3825 0 5 C0 3.35 0 1.7 0 0 Z M-16.6875 12.5 C-17.120625 12.995 -17.55375 13.49 -18 14 C-17.34 14.66 -16.68 15.32 -16 16 C-14.68 15.34 -13.36 14.68 -12 14 C-12 13.01 -12 12.02 -12 11 C-15.00259517 10.66781808 -15.00259517 10.66781808 -16.6875 12.5 Z " fill="#FC5A5B" transform="translate(328,37)"/>
<path d="M0 0 C3.40766001 1.70383 5.38497834 2.99360092 7.375 6.25 C8.6003153 11.6413873 8.84804243 15.96531353 6.25 20.875 C4.0496349 23.93106264 3.34180057 24.71093251 0 26 C-4.18134407 26.57596332 -7.91155012 26.40225322 -11.875 24.9375 C-15.52663974 21.60806377 -16.87688043 18.32116593 -17.1328125 13.49609375 C-16.90275618 8.95586462 -16.46189646 6.59560333 -13.625 2.9375 C-9.36908188 -0.2037729 -5.17031935 -0.70371076 0 0 Z M-7 6 C-9.47342266 9.71013399 -9.38503486 11.61060262 -9 16 C-7.64114884 18.40083438 -7.64114884 18.40083438 -6 20 C-3.52733235 19.65555119 -3.52733235 19.65555119 -1 19 C0.5121867 15.97562661 0.17263369 13.33758466 0 10 C-0.88064927 7.64630193 -0.88064927 7.64630193 -2 6 C-4.41619823 5.74969023 -4.41619823 5.74969023 -7 6 Z " fill="#FD6A6B" transform="translate(146,42)"/>
<path d="M0 0 C2.5 1.125 2.5 1.125 4 3 C5.00917654 6.31586579 5.15374823 8.38500707 4.3125 11.75 C2.71795002 14.48351425 2.03558225 15.12127882 -1 16 C-3.69118289 16.14951016 -6.29974748 16.09000842 -9 16 C-8.02977977 17.72780266 -8.02977977 17.72780266 -6 19 C-4.04176394 18.93871141 -4.04176394 18.93871141 -1.9375 18.5625 C-0.638125 18.376875 0.66125 18.19125 2 18 C2.66 18.66 3.32 19.32 4 20 C3.625 22.625 3.625 22.625 3 25 C-1.06827866 26.35609289 -4.74629346 26.5298986 -9 26 C-13.08757786 23.91905127 -15.31792119 22.2434261 -17 18 C-17.56811094 13.46249055 -17.53359148 9.31993681 -15.8125 5.0625 C-11.25431967 -0.12439486 -6.63979397 -0.89357975 0 0 Z M-7 6 C-7.66 6.66 -8.32 7.32 -9 8 C-8.67 8.99 -8.34 9.98 -8 11 C-6.35 10.34 -4.7 9.68 -3 9 C-3.33 8.01 -3.66 7.02 -4 6 C-4.99 6 -5.98 6 -7 6 Z " fill="#FC9395" transform="translate(296,42)"/>
<path d="M0 0 C1.70492881 1.70492881 1.1280442 3.84534261 1.13894653 6.11901855 C1.1369223 6.83255493 1.13489807 7.54609131 1.1328125 8.28125 C1.13424759 9.37427429 1.13424759 9.37427429 1.13571167 10.48937988 C1.13639335 12.0327971 1.13453988 13.57621717 1.13037109 15.11962891 C1.12502262 17.489974 1.13031642 19.86012959 1.13671875 22.23046875 C1.13605797 23.72656292 1.1347768 25.22265697 1.1328125 26.71875 C1.13483673 27.43228638 1.13686096 28.14582275 1.13894653 28.88098145 C1.11495191 33.88504809 1.11495191 33.88504809 0 35 C-3.465 34.505 -3.465 34.505 -7 34 C-7.33 28.39 -7.66 22.78 -8 17 C-10.5654594 19.5654594 -10.54046087 21.47686668 -11 25 C-11.66 25 -12.32 25 -13 25 C-13 26.98 -13 28.96 -13 31 C-13.66 31 -14.32 31 -15 31 C-15 31.66 -15 32.32 -15 33 C-15.99 33 -16.98 33 -18 33 C-20.21538462 27.58461538 -20.21538462 27.58461538 -19.125 24.625 C-18.75375 24.08875 -18.3825 23.5525 -18 23 C-18 23.99 -18 24.98 -18 26 C-17.34 26 -16.68 26 -16 26 C-15.88785156 24.80117188 -15.88785156 24.80117188 -15.7734375 23.578125 C-14.76535166 15.15764325 -12.56705085 8.19806927 -8 1 C-5.26752652 -0.36623674 -3.01801098 -0.128426 0 0 Z " fill="#FD5E5F" transform="translate(126,33)"/>
<path d="M0 0 C4.08045894 2.18257106 5.38287932 4.50790126 6.8125 8.75 C7.22470957 10.16198858 7.62610764 11.57738516 8 13 C5.69 12.67 3.38 12.34 1 12 C3.31 12.66 5.62 13.32 8 14 C8.1875 16.3125 8.1875 16.3125 8 19 C7.02246356 20.02196992 6.0194119 21.01979625 5 22 C3.79950593 25.10007201 3.79950593 25.10007201 3 28 C2.67 28 2.34 28 2 28 C1.67 25.36 1.34 22.72 1 20 C-0.32 20 -1.64 20 -3 20 C-3.33 21.32 -3.66 22.64 -4 24 C-7 23 -7 23 -8.1875 20.9375 C-8.5896875 19.9784375 -8.5896875 19.9784375 -9 19 C-10.65 19 -12.3 19 -14 19 C-14.33 17.35 -14.66 15.7 -15 14 C-14.34 14 -13.68 14 -13 14 C-12.67 13.01 -12.34 12.02 -12 11 C-12.66 10.67 -13.32 10.34 -14 10 C-13.43224464 8.70141061 -12.84508337 7.41129559 -12.25 6.125 C-11.92515625 5.40570312 -11.6003125 4.68640625 -11.265625 3.9453125 C-8.5657505 -0.20449459 -4.66539505 -0.57127286 0 0 Z " fill="#F77172" transform="translate(29,23)"/>
<path d="M0 0 C1.17433594 0.31710938 2.34867188 0.63421875 3.55859375 0.9609375 C10.32450158 2.46447257 17.15860526 2.46167474 24.0625 2.625 C25.4186424 2.66326971 26.77476282 2.70232633 28.13085938 2.7421875 C31.42044104 2.83584107 34.71002612 2.9215686 38 3 C34.1054093 6.8945907 28.17524646 7.15578744 22.875 7.375 C15.93221914 7.27735189 9.54338454 5.13973451 3 3 C5.54812875 6.82219312 7.27650924 6.95116439 11.625 8.1875 C12.81351563 8.53167969 14.00203125 8.87585938 15.2265625 9.23046875 C16.14179687 9.48441406 17.05703125 9.73835938 18 10 C18 10.66 18 11.32 18 12 C24.27 12 30.54 12 37 12 C36.01 12.33 35.02 12.66 34 13 C34 13.66 34 14.32 34 15 C21.22906208 17.98610657 6.77101646 18.64408484 -5 12 C-6 11 -6 11 -6.0625 8.4375 C-6.041875 7.633125 -6.02125 6.82875 -6 6 C-4.02 5.01 -2.04 4.02 0 3 C0 2.01 0 1.02 0 0 Z " fill="#272726" transform="translate(26,59)"/>
<path d="M0 0 C1.58246707 -0.08153933 3.16616273 -0.13943557 4.75 -0.1875 C6.07257813 -0.23970703 6.07257813 -0.23970703 7.421875 -0.29296875 C10.47610949 0.05410335 11.80564299 0.88254802 14 3 C14 3.66 14 4.32 14 5 C14.66 5 15.32 5 16 5 C16 6.32 16 7.64 16 9 C16.66 9 17.32 9 18 9 C18 9.99 18 10.98 18 12 C16.35 12.66 14.7 13.32 13 14 C14.98 14 16.96 14 19 14 C19 17.63 19 21.26 19 25 C17 22 17 22 17 19 C13.37 19.66 9.74 20.32 6 21 C6 22.65 6 24.3 6 26 C5.34 26.33 4.68 26.66 4 27 C3.01 26.34 2.02 25.68 1 25 C1.66 25 2.32 25 3 25 C2.67 22.69 2.34 20.38 2 18 C-0.64 17.67 -3.28 17.34 -6 17 C-5.67 16.34 -5.34 15.68 -5 15 C-2.69 15.33 -0.38 15.66 2 16 C1.60348083 14.68127338 1.18201309 13.37002899 0.75 12.0625 C0.51796875 11.33160156 0.2859375 10.60070312 0.046875 9.84765625 C-0.83694095 7.80553303 -0.83694095 7.80553303 -3 7.33984375 C-3.99 7.17162109 -3.99 7.17162109 -5 7 C-6.75 5.5 -6.75 5.5 -8 4 C-8 3.67 -8 3.34 -8 3 C-6.865625 2.87625 -5.73125 2.7525 -4.5625 2.625 C-3.386875 2.41875 -2.21125 2.2125 -1 2 C-0.67 1.34 -0.34 0.68 0 0 Z " fill="#F26806" transform="translate(59,24)"/>
<path d="M0 0 C1.2065625 0.0309375 1.2065625 0.0309375 2.4375 0.0625 C2.63085938 0.66578125 2.82421875 1.2690625 3.0234375 1.890625 C3.28382813 2.68984375 3.54421875 3.4890625 3.8125 4.3125 C4.06773437 5.10140625 4.32296875 5.8903125 4.5859375 6.703125 C5.50358073 9.38966625 5.50358073 9.38966625 7.4375 13.0625 C8.4275 8.7725 9.4175 4.4825 10.4375 0.0625 C12.4175 0.0625 14.3975 0.0625 16.4375 0.0625 C18.32710908 5.49836175 16.19750542 10.80935405 14.4375 16.0625 C12.33655714 20.38637596 10.46395157 23.37819895 6.4375 26.0625 C4.7875 25.7325 3.1375 25.4025 1.4375 25.0625 C1.4375 21.4325 1.4375 17.8025 1.4375 14.0625 C0.7775 14.0625 0.1175 14.0625 -0.5625 14.0625 C-0.8925 15.7125 -1.2225 17.3625 -1.5625 19.0625 C-2.5525 18.4025 -3.5425 17.7425 -4.5625 17.0625 C-4.6458142 14.27444996 -4.56652839 11.75836491 -4.3125 9 C-4.25964844 8.25427734 -4.20679688 7.50855469 -4.15234375 6.74023438 C-3.63277955 0.08860438 -3.63277955 0.08860438 0 0 Z " fill="#FC6061" transform="translate(260.5625,41.9375)"/>
<path d="M0 0 C0.7734375 0.00644531 1.546875 0.01289062 2.34375 0.01953125 C4.5 0.1875 4.5 0.1875 7.5 1.1875 C9.8406065 0.90980092 12.17624308 0.58210023 14.5 0.1875 C17.67218843 3.81285821 18.92902597 7.69900278 20.5 12.1875 C21.49 11.1975 22.48 10.2075 23.5 9.1875 C23.5 11.4975 23.5 13.8075 23.5 16.1875 C24.16 16.5175 24.82 16.8475 25.5 17.1875 C25.995 15.7025 25.995 15.7025 26.5 14.1875 C27.16 14.1875 27.82 14.1875 28.5 14.1875 C28.5 16.4975 28.5 18.8075 28.5 21.1875 C27.51 21.1875 26.52 21.1875 25.5 21.1875 C24.71625 22.033125 23.9325 22.87875 23.125 23.75 C21.825625 24.9565625 21.825625 24.9565625 20.5 26.1875 C17.6875 26 17.6875 26 15.5 25.1875 C15.2525 24.259375 15.005 23.33125 14.75 22.375 C13.28472663 17.21468944 11.37144906 12.21134141 9.5 7.1875 C8.87996094 7.52265625 8.25992188 7.8578125 7.62109375 8.203125 C4.99227869 9.42312757 4.1808963 9.16237138 1.5 8.1875 C-0.1744239 7.5405635 -1.84302621 6.87790574 -3.5 6.1875 C-1.56745228 8.2120738 0.13158688 9.60855792 2.5 11.1875 C-0.47 10.6925 -0.47 10.6925 -3.5 10.1875 C-3.83 8.5375 -4.16 6.8875 -4.5 5.1875 C0.25 4.0625 0.25 4.0625 2.5 5.1875 C2.5 5.8475 2.5 6.5075 2.5 7.1875 C4.15 6.8575 5.8 6.5275 7.5 6.1875 C7.17 5.5275 6.84 4.8675 6.5 4.1875 C5.51 3.8575 4.52 3.5275 3.5 3.1875 C3.5 2.5275 3.5 1.8675 3.5 1.1875 C-0.13 1.5175 -3.76 1.8475 -7.5 2.1875 C-4.35388747 0.09009164 -3.58811922 -0.06578219 0 0 Z " fill="#FD8686" transform="translate(233.5,41.8125)"/>
<path d="M0 0 C2.375 0.6875 2.375 0.6875 3.375 1.6875 C3.5625 4.125 3.5625 4.125 3.375 6.6875 C2.715 7.3475 2.055 8.0075 1.375 8.6875 C2.035 9.3475 2.695 10.0075 3.375 10.6875 C3.60205078 13.11767578 3.60205078 13.11767578 3.5703125 16.1328125 C3.56064453 17.74736328 3.56064453 17.74736328 3.55078125 19.39453125 C3.53402344 20.52246094 3.51726562 21.65039062 3.5 22.8125 C3.49097656 23.94816406 3.48195312 25.08382812 3.47265625 26.25390625 C3.44903098 29.06531299 3.41609013 31.87630298 3.375 34.6875 C-2.375 34.8125 -2.375 34.8125 -4.625 33.6875 C-4.79234009 29.72919483 -4.95875823 25.77085144 -5.125 21.8125 C-5.17269531 20.68457031 -5.22039062 19.55664062 -5.26953125 18.39453125 C-5.31464844 17.31816406 -5.35976562 16.24179687 -5.40625 15.1328125 C-5.44814453 14.13781738 -5.49003906 13.14282227 -5.53320312 12.11767578 C-5.5889568 10.64168617 -5.625 9.16454224 -5.625 7.6875 C-5.686875 6.6975 -5.74875 5.7075 -5.8125 4.6875 C-5.750625 3.6975 -5.68875 2.7075 -5.625 1.6875 C-2.625 -0.3125 -2.625 -0.3125 0 0 Z " fill="#FD5E60" transform="translate(204.625,33.3125)"/>
<path d="M0 0 C2.33333333 0.33333333 4.66666667 0.66666667 7 1 C7.33 0.67 7.66 0.34 8 0 C10.33297433 -0.04092937 12.66705225 -0.04241723 15 0 C16.125 4.75 16.125 4.75 15 7 C13 7.33333333 11 7.66666667 9 8 C6.98872116 12.02255768 7.82802972 17.07136049 8.625 21.375 C8.74875 22.24125 8.8725 23.1075 9 24 C7 26 7 26 4.5 26.25 C2 26 2 26 0 24 C-0.3347168 21.67749023 -0.3347168 21.67749023 -0.44921875 18.80859375 C-0.49240234 17.78185547 -0.53558594 16.75511719 -0.58007812 15.69726562 C-0.61552734 14.62154297 -0.65097656 13.54582031 -0.6875 12.4375 C-0.73455078 11.35791016 -0.78160156 10.27832031 -0.83007812 9.16601562 C-1.05564986 3.2826609 -1.05564986 3.2826609 -1 1 C-0.67 0.67 -0.34 0.34 0 0 Z " fill="#FC5656" transform="translate(182,42)"/>
<path d="M0 0 C0.67260351 1.76858691 1.33788395 3.53996016 2 5.3125 C2.37125 6.29863281 2.7425 7.28476563 3.125 8.30078125 C4 11 4 11 4 14 C4.66 14.33 5.32 14.66 6 15 C6.4140625 17.28515625 6.4140625 17.28515625 6.625 20.0625 C6.69976562 20.98160156 6.77453125 21.90070312 6.8515625 22.84765625 C6.90054688 23.55792969 6.94953125 24.26820312 7 25 C7.99 25.33 8.98 25.66 10 26 C9.01 26.33 8.02 26.66 7 27 C5.30117552 29.49759982 5.30117552 29.49759982 4 32 C2.35173889 29.03312999 1.55728913 26.34373475 1 23 C0.01 23.33 -0.98 23.66 -2 24 C-2.12117188 23.43410156 -2.24234375 22.86820313 -2.3671875 22.28515625 C-2.61855469 21.18494141 -2.61855469 21.18494141 -2.875 20.0625 C-3.03742187 19.33160156 -3.19984375 18.60070312 -3.3671875 17.84765625 C-3.82961523 15.79299706 -3.82961523 15.79299706 -6 15 C-6.39593121 12.15649404 -6.50849854 9.3351283 -6.65625 6.46875 C-6.7696875 5.6540625 -6.883125 4.839375 -7 4 C-7.66 3.67 -8.32 3.34 -9 3 C-2.25 0 -2.25 0 0 0 Z " fill="#C8B09A" transform="translate(34,0)"/>
<path d="M0 0 C1.9375 1.25 1.9375 1.25 3.9375 4.25 C7.00306598 4.98343428 7.00306598 4.98343428 9.9375 5.25 C9.6075 6.9 9.2775 8.55 8.9375 10.25 C6.6275 10.58 4.3175 10.91 1.9375 11.25 C1.6075 15.87 1.2775 20.49 0.9375 25.25 C2.9175 25.25 4.8975 25.25 6.9375 25.25 C6.6075 26.24 6.2775 27.23 5.9375 28.25 C0.3125 28.5 0.3125 28.5 -3.0625 26.25 C-3.0625 25.26 -3.0625 24.27 -3.0625 23.25 C-3.7225 23.25 -4.3825 23.25 -5.0625 23.25 C-5.0625 18.63 -5.0625 14.01 -5.0625 9.25 C-6.0525 8.92 -7.0425 8.59 -8.0625 8.25 C-7.0725 7.92 -6.0825 7.59 -5.0625 7.25 C-5.0625 4.94 -5.0625 2.63 -5.0625 0.25 C-2.0625 -0.75 -2.0625 -0.75 0 0 Z " fill="#FD6364" transform="translate(334.0625,37.75)"/>
<path d="M0 0 C5.71428571 0.71428571 5.71428571 0.71428571 7 2 C7.17244584 4.65254447 7.2839033 7.28166189 7.3515625 9.9375 C7.37471527 10.732771 7.39786804 11.52804199 7.42172241 12.34741211 C7.46942313 14.03199749 7.51464964 15.71665444 7.55761719 17.40136719 C7.62471995 19.98919985 7.70245289 22.57656256 7.78125 25.1640625 C7.82616267 26.79685747 7.87045447 28.42966966 7.9140625 30.0625 C7.93796051 30.84165771 7.96185852 31.62081543 7.98648071 32.42358398 C8.03017313 34.28188121 8.02053957 36.14130268 8 38 C5.95871653 40.04128347 2.03647677 39.32103654 -0.75 39.375 C-1.82507813 39.43107422 -1.82507813 39.43107422 -2.921875 39.48828125 C-6.99001128 39.55558498 -8.75554277 39.19614553 -11.96484375 36.62109375 C-13.80615387 34.24965596 -14.67364308 32.93721225 -15 30 C-13 32 -11 34 -9 36 C-6.66702567 36.04092937 -4.33294775 36.04241723 -2 36 C-2.99 35.01 -3.98 34.02 -5 33 C-3.68 32.34 -2.36 31.68 -1 31 C-1 27.04 -1 23.08 -1 19 C-2.65 19.33 -4.3 19.66 -6 20 C-7.20272819 22.40545638 -7.10071472 23.94996953 -7.0625 26.625 C-7.04896484 27.85089844 -7.04896484 27.85089844 -7.03515625 29.1015625 C-7.02355469 29.72804688 -7.01195312 30.35453125 -7 31 C-9.52017426 28.47982574 -9.29730377 27.48500151 -9.3125 24 C-9.32925781 23.113125 -9.34601563 22.22625 -9.36328125 21.3125 C-9.24339844 20.549375 -9.12351563 19.78625 -9 19 C-5.55892734 16.70595156 -4.03160191 16.73706944 0 17 C1.7462388 18.7462388 1.13221151 20.99878324 1.13671875 23.32226562 C1.13285156 24.02029297 1.12898438 24.71832031 1.125 25.4375 C1.13080078 26.47874023 1.13080078 26.47874023 1.13671875 27.54101562 C1.12663994 32.74672012 1.12663994 32.74672012 0 35 C1.65 35.66 3.3 36.32 5 37 C5 25.45 5 13.9 5 2 C3.35 2 1.7 2 0 2 C0 5.96 0 9.92 0 14 C-2.64 14 -5.28 14 -8 14 C-8 13.67 -8 13.34 -8 13 C-5.69 13 -3.38 13 -1 13 C-1.01160156 12.14535156 -1.02320313 11.29070313 -1.03515625 10.41015625 C-1.04417969 9.30542969 -1.05320313 8.20070313 -1.0625 7.0625 C-1.07410156 5.96035156 -1.08570313 4.85820313 -1.09765625 3.72265625 C-1 1 -1 1 0 0 Z " fill="#FCAEAE" transform="translate(171,29)"/>
<path d="M0 0 C3.0625 0.1875 3.0625 0.1875 5.0625 2.1875 C5.1875 5.3125 5.1875 5.3125 5.0625 8.1875 C3.7425 8.5175 2.4225 8.8475 1.0625 9.1875 C1.0625 15.1275 1.0625 21.0675 1.0625 27.1875 C2.0525 27.5175 3.0425 27.8475 4.0625 28.1875 C4.3925 30.1675 4.7225 32.1475 5.0625 34.1875 C1.5975 34.6825 1.5975 34.6825 -1.9375 35.1875 C-4.21972786 31.55753094 -4.18210185 28.49865499 -4.16796875 24.26953125 C-4.16751053 23.61168137 -4.16705231 22.95383148 -4.1665802 22.27604675 C-4.16356911 20.89177638 -4.15571711 19.50750906 -4.14331055 18.12329102 C-4.12497229 15.99678665 -4.12280157 13.87071608 -4.12304688 11.74414062 C-4.08112549 0.26049737 -4.08112549 0.26049737 0 0 Z " fill="#FC5C5C" transform="translate(95.9375,32.8125)"/>
<path d="M0 0 C0.59167969 0.13277344 1.18335937 0.26554687 1.79296875 0.40234375 C2.58316406 0.57894531 3.37335937 0.75554688 4.1875 0.9375 C4.96480469 1.11152344 5.74210937 1.28554688 6.54296875 1.46484375 C7.35378906 1.64144531 8.16460937 1.81804688 9 2 C9.81855469 2.18175781 10.63710938 2.36351563 11.48046875 2.55078125 C19.16902709 3.92160948 26.11078444 3.03592621 33.4921875 0.65625 C36.09916433 -0.02594955 38.31776901 -0.11536477 41 0 C41.495 1.98 41.495 1.98 42 4 C33.762522 9.41319983 22.53107257 9.23552407 12.97314453 7.66748047 C9.15498502 6.82367211 5.47394787 5.80089458 2 4 C0.65234375 1.859375 0.65234375 1.859375 0 0 Z " fill="#F4E2C0" transform="translate(29,62)"/>
<path d="M0 0 C-2 1 -2 1 -4.875 0.9375 C-8.79774202 1.00396461 -8.79774202 1.00396461 -12 3 C-14.49955095 7.38996522 -14.49955095 7.38996522 -14.5625 12.25 C-14.376875 12.8275 -14.19125 13.405 -14 14 C-14.66 14.99 -15.32 15.98 -16 17 C-16 17.66 -16 18.32 -16 19 C-14.35 18.67 -12.7 18.34 -11 18 C-10.731875 19.11375 -10.46375 20.2275 -10.1875 21.375 C-9.34190981 25.21840951 -9.34190981 25.21840951 -6 27 C-6.66 27.33 -7.32 27.66 -8 28 C-7.67 29.98 -7.34 31.96 -7 34 C-10.41158256 32.86280581 -11.11854601 31.95657056 -13 29 C-13 28.34 -13 27.68 -13 27 C-13.78375 26.773125 -14.5675 26.54625 -15.375 26.3125 C-18 25 -18 25 -19.3125 22.625 C-20.72888938 17.21696783 -20.13032124 10.65957938 -17.9375 5.5 C-17.628125 5.005 -17.31875 4.51 -17 4 C-16.34 4 -15.68 4 -15 4 C-15 3.34 -15 2.68 -15 2 C-10.24068293 -1.49949785 -5.25942234 -3.43885307 0 0 Z " fill="#8C5D57" transform="translate(31,23)"/>
<path d="M0 0 C1.17433594 0.31710938 2.34867188 0.63421875 3.55859375 0.9609375 C10.32450158 2.46447257 17.15860526 2.46167474 24.0625 2.625 C25.4186424 2.66326971 26.77476282 2.70232633 28.13085938 2.7421875 C31.42044104 2.83584107 34.71002612 2.9215686 38 3 C34.1054093 6.8945907 28.17524646 7.15578744 22.875 7.375 C15.93221914 7.27735189 9.54338454 5.13973451 3 3 C5.54812875 6.82219312 7.27650924 6.95116439 11.625 8.1875 C12.81351563 8.53167969 14.00203125 8.87585938 15.2265625 9.23046875 C16.14179687 9.48441406 17.05703125 9.73835938 18 10 C18 10.33 18 10.66 18 11 C11.69732561 10.63223832 6.66748157 9.83374078 1 7 C1 6.34 1 5.68 1 5 C0.38125 5.495 -0.2375 5.99 -0.875 6.5 C-3 8 -3 8 -5 8 C-3.60804085 10.7839183 -1.84424221 10.97898997 1 12 C1 12.66 1 13.32 1 14 C-4.875 12.125 -4.875 12.125 -6 11 C-6.04063832 9.33382885 -6.042721 7.66611905 -6 6 C-4.02 5.01 -2.04 4.02 0 3 C0 2.01 0 1.02 0 0 Z " fill="#414040" transform="translate(26,59)"/>
<path d="M0 0 C1.98 0 3.96 0 6 0 C7.88960908 5.43586175 5.76000542 10.74685405 4 16 C1.89905714 20.32387596 0.02645157 23.31569895 -4 26 C-6.6875 25.625 -6.6875 25.625 -9 25 C-9 23.68 -9 22.36 -9 21 C-8.34 21 -7.68 21 -7 21 C-7 21.99 -7 22.98 -7 24 C-4.54368999 23.50452457 -4.54368999 23.50452457 -2 22 C-0.65223022 19.72037377 0.11364216 17.51912228 1 15 C0.566875 15.495 0.13375 15.99 -0.3125 16.5 C-2 18 -2 18 -5 18 C-5 16.02 -5 14.04 -5 12 C-4.34 12.33 -3.68 12.66 -3 13 C-2.01 8.71 -1.02 4.42 0 0 Z " fill="#FD989A" transform="translate(271,42)"/>
<path d="M0 0 C1.65 0 3.3 0 5 0 C5 11.55 5 23.1 5 35 C3.35 34.34 1.7 33.68 0 33 C0 22.11 0 11.22 0 0 Z " fill="#FD5859" transform="translate(171,31)"/>
<path d="M0 0 C1.4540625 0.0309375 1.4540625 0.0309375 2.9375 0.0625 C3.2675 0.7225 3.5975 1.3825 3.9375 2.0625 C1.2975 2.3925 -1.3425 2.7225 -4.0625 3.0625 C-4.3925 5.3725 -4.7225 7.6825 -5.0625 10.0625 C-1.7625 9.7325 1.5375 9.4025 4.9375 9.0625 C4.9375 8.4025 4.9375 7.7425 4.9375 7.0625 C6.9375 5.4375 6.9375 5.4375 8.9375 4.0625 C8.625 6.9375 8.625 6.9375 7.9375 10.0625 C4.73369983 12.19836678 3.91810033 12.29382175 0.25 12.1875 C-0.55824219 12.16945313 -1.36648438 12.15140625 -2.19921875 12.1328125 C-3.12154297 12.09800781 -3.12154297 12.09800781 -4.0625 12.0625 C-4.0625 14.3725 -4.0625 16.6825 -4.0625 19.0625 C-5.3825 18.7325 -6.7025 18.4025 -8.0625 18.0625 C-10.7495229 8.15410305 -10.7495229 8.15410305 -10.0625 5.0625 C-7.125 2.8125 -7.125 2.8125 -4.0625 1.0625 C-3.0625 0.0625 -3.0625 0.0625 0 0 Z " fill="#FC5A5B" transform="translate(290.0625,43.9375)"/>
<path d="M0 0 C1.2065625 0.0309375 1.2065625 0.0309375 2.4375 0.0625 C1.1175 0.3925 -0.2025 0.7225 -1.5625 1.0625 C-1.5625 8.3225 -1.5625 15.5825 -1.5625 23.0625 C0.0875 23.3925 1.7375 23.7225 3.4375 24.0625 C3.27894531 23.35351562 3.12039062 22.64453125 2.95703125 21.9140625 C2.434999 19.04877273 2.20116146 16.34766952 2.125 13.4375 C2.06892578 12.02597656 2.06892578 12.02597656 2.01171875 10.5859375 C2.4375 8.0625 2.4375 8.0625 4.20703125 6.2265625 C6.4375 5.0625 6.4375 5.0625 10.4375 5.0625 C10.4375 4.0725 10.4375 3.0825 10.4375 2.0625 C8.7875 2.0625 7.1375 2.0625 5.4375 2.0625 C5.4375 1.4025 5.4375 0.7425 5.4375 0.0625 C7.7475 0.0625 10.0575 0.0625 12.4375 0.0625 C13.5625 4.8125 13.5625 4.8125 12.4375 7.0625 C10.4375 7.39583333 8.4375 7.72916667 6.4375 8.0625 C4.42622116 12.08505768 5.26552972 17.13386049 6.0625 21.4375 C6.18625 22.30375 6.31 23.17 6.4375 24.0625 C4.4375 26.0625 4.4375 26.0625 1.9375 26.3125 C-0.5625 26.0625 -0.5625 26.0625 -2.5625 24.0625 C-2.8972168 21.73999023 -2.8972168 21.73999023 -3.01171875 18.87109375 C-3.05490234 17.84435547 -3.09808594 16.81761719 -3.14257812 15.75976562 C-3.17802734 14.68404297 -3.21347656 13.60832031 -3.25 12.5 C-3.29705078 11.42041016 -3.34410156 10.34082031 -3.39257812 9.22851562 C-3.61814986 3.3451609 -3.61814986 3.3451609 -3.5625 1.0625 C-2.5625 0.0625 -2.5625 0.0625 0 0 Z " fill="#FC8C8F" transform="translate(184.5625,41.9375)"/>
<path d="M0 0 C3.63 0.33 7.26 0.66 11 1 C13.3914415 6.34557512 13.38243372 11.37748434 12 17 C10.14105181 20.0574105 9.46635682 20.84454773 6 22 C3.66700175 22.03954234 1.33291811 22.04401732 -1 22 C-0.34 21.67 0.32 21.34 1 21 C1 20.34 1 19.68 1 19 C3.64 18.34 6.28 17.68 9 17 C8.65791234 14.86945405 8.27516329 12.74540547 7.875 10.625 C7.66617188 9.44164062 7.45734375 8.25828125 7.2421875 7.0390625 C6.28246572 3.69797341 6.28246572 3.69797341 2.8828125 2.5859375 C1.45582031 2.29589844 1.45582031 2.29589844 0 2 C0 1.34 0 0.68 0 0 Z " fill="#FC595B" transform="translate(139,44)"/>
<path d="M0 0 C1.32 0 2.64 0 4 0 C4.66 1.98 5.32 3.96 6 6 C6.33 4.68 6.66 3.36 7 2 C8.62463842 1.94604522 10.24978541 1.90722805 11.875 1.875 C13.23238281 1.84019531 13.23238281 1.84019531 14.6171875 1.8046875 C17 2 17 2 19 4 C19.60608097 6.05814996 20.01174169 8.12047457 20.4375 10.22265625 C20.623125 10.80917969 20.80875 11.39570312 21 12 C21.66 12.33 22.32 12.66 23 13 C23.02578125 12.37351562 23.0515625 11.74703125 23.078125 11.1015625 C23.13484375 10.28429688 23.1915625 9.46703125 23.25 8.625 C23.31960937 7.40683594 23.31960937 7.40683594 23.390625 6.1640625 C24 4 24 4 25.859375 2.6484375 C28 2 28 2 31 3 C29.35 3.33 27.7 3.66 26 4 C25.67 6.97 25.34 9.94 25 13 C23.35 13.33 21.7 13.66 20 14 C17.59185923 10.48812804 16.63370592 8.27343092 17 4 C14.36 3.67 11.72 3.34 9 3 C8.67 4.65 8.34 6.3 8 8 C6.0625 8.5625 6.0625 8.5625 4 9 C3 8 3 8 2.9375 4.9375 C2.958125 3.968125 2.97875 2.99875 3 2 C2.34 2 1.68 2 1 2 C0.34 3.32 -0.32 4.64 -1 6 C-2.32 5.67 -3.64 5.34 -5 5 C-4.67 3.68 -4.34 2.36 -4 1 C-3.01 1.99 -2.02 2.98 -1 4 C-0.67 2.68 -0.34 1.36 0 0 Z " fill="#A0755E" transform="translate(26,43)"/>
<path d="M0 0 C3.13470423 3.47359118 4.13854082 7.09572848 5.3125 11.5625 C2.39142345 11.46513078 0.07853907 11.38226301 -2.6875 10.5625 C-5.36754762 7.47013736 -7.0614429 4.63187112 -7.6875 0.5625 C-8.265 1.366875 -8.8425 2.17125 -9.4375 3 C-11.66876893 5.54116739 -12.43206771 6.21370368 -15.6875 6.5625 C-13.27139262 1.00545302 -13.27139262 1.00545302 -10.875 -0.8125 C-6.70818719 -2.00301795 -3.86733827 -2.06857629 0 0 Z " fill="#DF6D6B" transform="translate(31.6875,24.4375)"/>
<path d="M0 0 C2.5 1.5 2.5 1.5 4 3 C1.36749612 4.31625194 0.19820944 3.74813658 -2.625 3.0625 C-3.44226563 2.86785156 -4.25953125 2.67320313 -5.1015625 2.47265625 C-6.04128906 2.23869141 -6.04128906 2.23869141 -7 2 C-7 2.66 -7 3.32 -7 4 C-6.236875 3.896875 -5.47375 3.79375 -4.6875 3.6875 C-2 4 -2 4 -0.25 5.875 C1.47436925 10.18592312 1.74057088 14.39289658 2 19 C0.68 19.33 -0.64 19.66 -2 20 C-1.67 19.01 -1.34 18.02 -1 17 C-0.86843473 13.31617231 -0.83017862 10.50946415 -2 7 C-3.65 7 -5.3 7 -7 7 C-8.5121867 10.02437339 -8.17263369 12.66241534 -8 16 C-7.11935073 18.35369807 -7.11935073 18.35369807 -6 20 C-6.99 20 -7.98 20 -9 20 C-11.105184 16.842224 -11.25289344 16.04602866 -11.1875 12.4375 C-11.18105469 11.65246094 -11.17460937 10.86742187 -11.16796875 10.05859375 C-11 8 -11 8 -10 6 C-9.34 6 -8.68 6 -8 6 C-8.33 5.34 -8.66 4.68 -9 4 C-10.65 4.33 -12.3 4.66 -14 5 C-13 2 -13 2 -10.9375 0.8125 C-7.01334631 -0.27290421 -4.08285131 -0.32403582 0 0 Z " fill="#FCAAAB" transform="translate(146,42)"/>
<path d="M0 0 C0.33 0 0.66 0 1 0 C1.125 3.375 1.125 3.375 1 7 C0.34 7.66 -0.32 8.32 -1 9 C-1.39764263 10.98821313 -1.73775349 12.98944339 -2 15 C-2.66 15 -3.32 15 -4 15 C-4 16.98 -4 18.96 -4 21 C-4.66 21 -5.32 21 -6 21 C-6 21.66 -6 22.32 -6 23 C-6.99 23 -7.98 23 -9 23 C-11.21538462 17.58461538 -11.21538462 17.58461538 -10.125 14.625 C-9.75375 14.08875 -9.3825 13.5525 -9 13 C-9 13.99 -9 14.98 -9 16 C-8.34 16 -7.68 16 -7 16 C-6.67 12.7 -6.34 9.4 -6 6 C-5.01 5.67 -4.02 5.34 -3 5 C-1.8499169 3.03327085 -1.8499169 3.03327085 -1 1 C-0.67 0.67 -0.34 0.34 0 0 Z " fill="#FD6465" transform="translate(117,43)"/>
<path d="M0 0 C1.21236328 0.01353516 1.21236328 0.01353516 2.44921875 0.02734375 C3.37154297 0.04474609 3.37154297 0.04474609 4.3125 0.0625 C3.3125 3.0625 3.3125 3.0625 1.3125 4.0625 C1.6425 4.3925 1.9725 4.7225 2.3125 5.0625 C2.35313832 6.72867115 2.355221 8.39638095 2.3125 10.0625 C-0.77559695 11.82712683 -1.92062136 12.0625 -5.6875 12.0625 C-6.0175 11.0725 -6.3475 10.0825 -6.6875 9.0625 C-8.3375 9.3925 -9.9875 9.7225 -11.6875 10.0625 C-11.3575 8.0825 -11.0275 6.1025 -10.6875 4.0625 C-9.6975 3.7325 -8.7075 3.4025 -7.6875 3.0625 C-7.6875 2.4025 -7.6875 1.7425 -7.6875 1.0625 C-4.80538698 0.10179566 -2.98899956 -0.04331883 0 0 Z M-3.375 7.5625 C-3.808125 8.0575 -4.24125 8.5525 -4.6875 9.0625 C-4.0275 9.7225 -3.3675 10.3825 -2.6875 11.0625 C-1.3675 10.4025 -0.0475 9.7425 1.3125 9.0625 C1.3125 8.0725 1.3125 7.0825 1.3125 6.0625 C-1.69009517 5.73031808 -1.69009517 5.73031808 -3.375 7.5625 Z " fill="#FC9192" transform="translate(314.6875,41.9375)"/>
<path d="M0 0 C0.99 0.33 1.98 0.66 3 1 C2.34 1 1.68 1 1 1 C1 3.31 1 5.62 1 8 C0.01 8.495 0.01 8.495 -1 9 C-0.34 9.33 0.32 9.66 1 10 C1 14.62 1 19.24 1 24 C0.67 24 0.34 24 0 24 C-0.33 20.04 -0.66 16.08 -1 12 C-1.66 12 -2.32 12 -3 12 C-3.309375 12.94875 -3.61875 13.8975 -3.9375 14.875 C-5 18 -5 18 -6 20 C-9.56454416 21.37097852 -13.23355995 21.07243154 -17 21 C-16.67 22.32 -16.34 23.64 -16 25 C-16.99 24.67 -17.98 24.34 -19 24 C-19.33 22.35 -19.66 20.7 -20 19 C-18.60974609 18.80083984 -18.60974609 18.80083984 -17.19140625 18.59765625 C-15.99386719 18.42105469 -14.79632813 18.24445312 -13.5625 18.0625 C-12.36753906 17.88847656 -11.17257812 17.71445312 -9.94140625 17.53515625 C-7.12044324 17.31014787 -7.12044324 17.31014787 -6 16 C-5.95907063 13.66702567 -5.95758277 11.33294775 -6 9 C-6.66 8.67 -7.32 8.34 -8 8 C-7.67 7.34 -7.34 6.68 -7 6 C-6.01 6 -5.02 6 -4 6 C-2.66018514 5.6937566 -1.32488113 5.36548445 0 5 C0 3.35 0 1.7 0 0 Z " fill="#FCC1C0" transform="translate(328,37)"/>
<path d="M0 0 C1 1 1 1 1.3125 3.8125 C1 7 1 7 -0.4375 9.375 C-4.14339686 11.72508094 -7.71355009 11.67888525 -12 11 C-12.99 10.34 -13.98 9.68 -15 9 C-14.67 7.68 -14.34 6.36 -14 5 C-12.02 5.495 -12.02 5.495 -10 6 C-10 6.66 -10 7.32 -10 8 C-8.02 7.67 -6.04 7.34 -4 7 C-4.03122943 5.03243548 -4.03122943 5.03243548 -5 3 C-7.99615946 1.6954344 -7.99615946 1.6954344 -11 1 C-7.23171528 -1.56243361 -4.32066847 -0.89674251 0 0 Z " fill="#FC5B5C" transform="translate(239,55)"/>
<path d="M0 0 C0.90105469 0.01804688 1.80210937 0.03609375 2.73046875 0.0546875 C3.41753906 0.07789063 4.10460937 0.10109375 4.8125 0.125 C4.8125 0.785 4.8125 1.445 4.8125 2.125 C5.8025 2.455 6.7925 2.785 7.8125 3.125 C7.4825 4.775 7.1525 6.425 6.8125 8.125 C6.1525 8.125 5.4925 8.125 4.8125 8.125 C4.8125 8.785 4.8125 9.445 4.8125 10.125 C1.5125 10.455 -1.7875 10.785 -5.1875 11.125 C-4.8575 8.815 -4.5275 6.505 -4.1875 4.125 C-1.8775 3.465 0.4325 2.805 2.8125 2.125 C-1.08540543 1.76240415 -2.70861654 1.77672112 -5.9375 4.125 C-6.68 4.785 -7.4225 5.445 -8.1875 6.125 C-8.8475 6.125 -9.5075 6.125 -10.1875 6.125 C-7.96735818 1.00159579 -5.45984177 -0.14181407 0 0 Z M-1.1875 5.125 C-1.8475 5.785 -2.5075 6.445 -3.1875 7.125 C-2.8575 8.115 -2.5275 9.105 -2.1875 10.125 C-0.5375 9.465 1.1125 8.805 2.8125 8.125 C2.4825 7.135 2.1525 6.145 1.8125 5.125 C0.8225 5.125 -0.1675 5.125 -1.1875 5.125 Z " fill="#FB5E5E" transform="translate(290.1875,42.875)"/>
<path d="M0 0 C0.66 0 1.32 0 2 0 C1.773125 0.845625 1.54625 1.69125 1.3125 2.5625 C0.92161794 6.86220264 2.03061366 9.20710779 4 13 C4.66 13.66 5.32 14.32 6 15 C5.34 15 4.68 15 4 15 C4.33 15.99 4.66 16.98 5 18 C5.03954234 20.33299825 5.04401732 22.66708189 5 25 C3.68 25.33 2.36 25.66 1 26 C1.66 25.67 2.32 25.34 3 25 C2.67 22.69 2.34 20.38 2 18 C-0.64 17.67 -3.28 17.34 -6 17 C-5.67 16.34 -5.34 15.68 -5 15 C-2.69 15.33 -0.38 15.66 2 16 C1.60348083 14.68127338 1.18201309 13.37002899 0.75 12.0625 C0.51796875 11.33160156 0.2859375 10.60070312 0.046875 9.84765625 C-0.83694095 7.80553303 -0.83694095 7.80553303 -3 7.33984375 C-3.99 7.17162109 -3.99 7.17162109 -5 7 C-6.75 5.5 -6.75 5.5 -8 4 C-8 3.67 -8 3.34 -8 3 C-6.865625 2.87625 -5.73125 2.7525 -4.5625 2.625 C-3.386875 2.41875 -2.21125 2.2125 -1 2 C-0.67 1.34 -0.34 0.68 0 0 Z " fill="#9B5906" transform="translate(59,24)"/>
<path d="M0 0 C3.32606016 3.03683754 3.9328951 5.19474122 4.3125 9.75 C4.25125516 14.49210025 2.75653716 17.17147617 0 21 C-4.15376911 23.62114151 -8.23074092 23.56209125 -13 23 C-16.63467079 21.37599816 -17.77408696 20.33886956 -20 17 C-19.505 15.515 -19.505 15.515 -19 14 C-18.5875 14.804375 -18.175 15.60875 -17.75 16.4375 C-16.28772903 19.04776454 -16.28772903 19.04776454 -14.25 19.8125 C-7.21510517 20.64257118 -7.21510517 20.64257118 -1 18 C1.77379813 11.89764411 1.22577676 6.43532799 0 0 Z " fill="#FBAFB1" transform="translate(150,45)"/>
<path d="M0 0 C0.99 0.33 1.98 0.66 3 1 C2.34 1 1.68 1 1 1 C1.28875 1.721875 1.5775 2.44375 1.875 3.1875 C2.91666667 5.79166667 3.95833333 8.39583333 5 11 C1.0186217 12.3271261 -2.85045227 12.06915913 -7 12 C-7 11.34 -7 10.68 -7 10 C-7.66 9.67 -8.32 9.34 -9 9 C-6 6 -3 3 0 0 Z " fill="#FA7373" transform="translate(24,24)"/>
<path d="M0 0 C0.66 0 1.32 0 2 0 C2 7.26 2 14.52 2 22 C3.65 22.33 5.3 22.66 7 23 C6.83628906 22.48953125 6.67257813 21.9790625 6.50390625 21.453125 C5.83301519 18.18708172 5.9066544 15.0813253 5.9375 11.75 C5.94652344 10.48671875 5.95554688 9.2234375 5.96484375 7.921875 C5.97644531 6.95765625 5.98804688 5.9934375 6 5 C6.66 5 7.32 5 8 5 C8.33 3.68 8.66 2.36 9 1 C9 8.92 9 16.84 9 25 C3 25 3 25 1 24 C0.67 16.08 0.34 8.16 0 0 Z " fill="#FDA1A2" transform="translate(199,43)"/>
<path d="M0 0 C1.65 0 3.3 0 5 0 C5.99 2.64 6.98 5.28 8 8 C8.99 8 9.98 8 11 8 C10.01 10.97 9.02 13.94 8 17 C11.96 17.33 15.92 17.66 20 18 C19.67 18.66 19.34 19.32 19 20 C11.57142857 19 11.57142857 19 8 18 C8 19.32 8 20.64 8 22 C6.68 21.67 5.36 21.34 4 21 C4.66 20.34 5.32 19.68 6 19 C6.64767793 16.42938689 6.64767793 16.42938689 7 14 C3.7 13.67 0.4 13.34 -3 13 C1 11 1 11 4.25 11.875 C5.1575 12.24625 6.065 12.6175 7 13 C6.21085079 11.39459341 5.41858235 9.79071984 4.625 8.1875 C4.18414062 7.29417969 3.74328125 6.40085937 3.2890625 5.48046875 C1.98133095 2.85443619 1.98133095 2.85443619 0 0 Z " fill="#85551E" transform="translate(30,23)"/>
<path d="M0 0 C1.32 0.33 2.64 0.66 4 1 C5.125 4.75 5.125 4.75 4 7 C3.34 7 2.68 7 2 7 C1.76539062 7.63421875 1.53078125 8.2684375 1.2890625 8.921875 C0 11 0 11 -2.1640625 11.828125 C-3.38222656 12.03695312 -3.38222656 12.03695312 -4.625 12.25 C-5.44226563 12.39953125 -6.25953125 12.5490625 -7.1015625 12.703125 C-8.04128906 12.85007812 -8.04128906 12.85007812 -9 13 C-9 12.34 -9 11.68 -9 11 C-14.28 10.67 -19.56 10.34 -25 10 C-24.67 9.34 -24.34 8.68 -24 8 C-22.94941406 8.03480469 -21.89882813 8.06960937 -20.81640625 8.10546875 C-12.90060049 8.28640145 -6.40687268 8.174374 1 5 C0.67 3.35 0.34 1.7 0 0 Z " fill="#514B44" transform="translate(69,61)"/>
<path d="M0 0 C2.8992226 0.46761655 3.86675182 0.86675182 6 3 C6.44678306 7.02104757 6.6808704 9.13756416 4.125 12.375 C0.94675439 14.80542311 -0.91789689 15.17954713 -4.875 15.25 C-6.17050781 15.28867188 -6.17050781 15.28867188 -7.4921875 15.328125 C-10.45024649 14.94108924 -11.79201784 13.95124005 -14 12 C-13.67 10.35 -13.34 8.7 -13 7 C-11.35 6.67 -9.7 6.34 -8 6 C-8.33 6.66 -8.66 7.32 -9 8 C-9.66 8 -10.32 8 -11 8 C-11 8.99 -11 9.98 -11 11 C-8.67313547 12.16343227 -7.15278587 12.19895988 -4.5625 12.25 C-3.38880859 12.28867188 -3.38880859 12.28867188 -2.19140625 12.328125 C0.06750673 12.16560831 0.06750673 12.16560831 1.7734375 10.68359375 C3.59705814 8.18047116 3.20023449 6.00351741 3 3 C1.68 2.34 0.36 1.68 -1 1 C-0.67 0.67 -0.34 0.34 0 0 Z " fill="#FEABAD" transform="translate(236,53)"/>
<path d="M0 0 C2.66236872 2.66236872 3.05939079 5.32882365 4.0234375 8.90625 C4.84116978 11.09873095 4.84116978 11.09873095 6.7421875 12.2734375 C9.51628205 13.16613921 11.84055475 13.19427251 14.75 13.125 C15.73484375 13.10695313 16.7196875 13.08890625 17.734375 13.0703125 C18.48203125 13.04710938 19.2296875 13.02390625 20 13 C19.67 12.34 19.34 11.68 19 11 C16.36 11 13.72 11 11 11 C13.96687001 9.35173889 16.65626525 8.55728913 20 8 C20.66 9.32 21.32 10.64 22 12 C20.625 14 20.625 14 18 16 C13.35481627 16.7441694 9.31935639 16.57721842 5 14.6875 C2.45915467 12.54366175 1.13863243 10.83048671 0.5859375 7.51953125 C0.51632812 6.62621094 0.44671875 5.73289062 0.375 4.8125 C0.30023438 3.91144531 0.22546875 3.01039062 0.1484375 2.08203125 C0.09945313 1.39496094 0.05046875 0.70789062 0 0 Z " fill="#FCAAAC" transform="translate(302,52)"/>
<path d="M0 0 C1.010625 0.0825 2.02125 0.165 3.0625 0.25 C3.7225 1.24 4.3825 2.23 5.0625 3.25 C2.7525 3.25 0.4425 3.25 -1.9375 3.25 C-1.6075 12.82 -1.2775 22.39 -0.9375 32.25 C0.0525 32.58 1.0425 32.91 2.0625 33.25 C2.3925 31.6 2.7225 29.95 3.0625 28.25 C5.0625 32 5.0625 32 5.0625 34.25 C1.5975 34.745 1.5975 34.745 -1.9375 35.25 C-4.21972786 31.62003094 -4.18210185 28.56115499 -4.16796875 24.33203125 C-4.16751053 23.67418137 -4.16705231 23.01633148 -4.1665802 22.33854675 C-4.16356911 20.95427638 -4.15571711 19.57000906 -4.14331055 18.18579102 C-4.12497229 16.05928665 -4.12280157 13.93321608 -4.12304688 11.80664062 C-4.08121434 0.34733739 -4.08121434 0.34733739 0 0 Z " fill="#FE9A9C" transform="translate(95.9375,32.75)"/>
<path d="M0 0 C1.43739513 -0.02712066 2.87493863 -0.04645067 4.3125 -0.0625 C5.51326172 -0.07990234 5.51326172 -0.07990234 6.73828125 -0.09765625 C9 0 9 0 12 1 C12.625 3.875 12.625 3.875 13 7 C12.34 7.66 11.68 8.32 11 9 C8.625 8.6875 8.625 8.6875 6 8 C5.236875 7.814375 4.47375 7.62875 3.6875 7.4375 C3.130625 7.293125 2.57375 7.14875 2 7 C1.67 7.66 1.34 8.32 1 9 C3.97 9.495 3.97 9.495 7 10 C3.98968256 10.93423645 3.13349732 11.04449911 0 10 C0.33 8.35 0.66 6.7 1 5 C1.61875 4.855625 2.2375 4.71125 2.875 4.5625 C5.03258322 4.06847775 5.03258322 4.06847775 7 3 C7 2.34 7 1.68 7 1 C4.69 1 2.38 1 0 1 C0 0.67 0 0.34 0 0 Z " fill="#FCA6A4" transform="translate(350,42)"/>
<path d="M0 0 C0.99 0 1.98 0 3 0 C3 0.66 3 1.32 3 2 C4.65 1.34 6.3 0.68 8 0 C8.433125 0.78375 8.86625 1.5675 9.3125 2.375 C10.89220247 5.21698375 10.89220247 5.21698375 14 7 C13.01 7.495 13.01 7.495 12 8 C12.33 9.98 12.66 11.96 13 14 C9.58841744 12.86280581 8.88145399 11.95657056 7 9 C7 8.34 7 7.68 7 7 C6.21625 6.773125 5.4325 6.54625 4.625 6.3125 C2 5 2 5 0.6875 2.375 C0.460625 1.59125 0.23375 0.8075 0 0 Z " fill="#D3C5AF" transform="translate(11,43)"/>
<path d="M0 0 C2.375 0.6875 2.375 0.6875 3.375 1.6875 C3.6732732 4.52109542 3.73102594 6.12535378 2.1875 8.5625 C0.375 9.6875 0.375 9.6875 -2.25 9.4375 C-4.625 8.6875 -4.625 8.6875 -5.625 7.6875 C-5.875 4.75 -5.875 4.75 -5.625 1.6875 C-2.625 -0.3125 -2.625 -0.3125 0 0 Z " fill="#FDB3B2" transform="translate(204.625,33.3125)"/>
<path d="M0 0 C1.98 0 3.96 0 6 0 C7.0326802 2.78823655 7.04509293 3.8677274 6.0625 6.75 C5.711875 7.4925 5.36125 8.235 5 9 C4.34 9 3.68 9 3 9 C2.67 10.65 2.34 12.3 2 14 C1.01 13.34 0.02 12.68 -1 12 C-0.67 8.04 -0.34 4.08 0 0 Z " fill="#FC7373" transform="translate(271,42)"/>
<path d="M0 0 C0 0.66 0 1.32 0 2 C1.11375 2.226875 2.2275 2.45375 3.375 2.6875 C7 4 7 4 8.4375 6.4375 C9 9 9 9 9 12 C7.35 11.67 5.7 11.34 4 11 C4 10.34 4 9.68 4 9 C3.34 9 2.68 9 2 9 C-0.625 6.625 -0.625 6.625 -3 4 C-3 3.34 -3 2.68 -3 2 C-3.66 1.67 -4.32 1.34 -5 1 C-2 0 -2 0 0 0 Z " fill="#EBB813" transform="translate(52,28)"/>
<path d="M0 0 C7.97727273 -0.46022727 7.97727273 -0.46022727 11.5 1.125 C13.60054222 3.75067778 13.8663939 5.65984753 14 9 C13.27627894 11.89488423 12.70415776 13.4312572 10.375 15.3125 C6.86233535 16.32932398 3.65099493 16.12169983 0 16 C-0.33 16.66 -0.66 17.32 -1 18 C-1 16.68 -1 15.36 -1 14 C-0.37351562 13.93941406 0.25296875 13.87882812 0.8984375 13.81640625 C1.71570313 13.73261719 2.53296875 13.64882813 3.375 13.5625 C4.18710937 13.48128906 4.99921875 13.40007813 5.8359375 13.31640625 C8.04272805 13.10909886 8.04272805 13.10909886 10 12 C10.92457659 9.11993606 10.92457659 9.11993606 11 6 C9.64555699 4.22809091 9.64555699 4.22809091 8 3 C8 2.34 8 1.68 8 1 C5.36 1 2.72 1 0 1 C0 0.67 0 0.34 0 0 Z " fill="#FCA1A2" transform="translate(287,42)"/>
<path d="M0 0 C0.66 0 1.32 0 2 0 C0.125 5.75 0.125 5.75 -1 8 C-0.01 8.33 0.98 8.66 2 9 C2 16.92 2 24.84 2 33 C1.67 33 1.34 33 1 33 C0.93941406 31.75863281 0.87882812 30.51726562 0.81640625 29.23828125 C0.73196377 27.59634423 0.64731764 25.95441768 0.5625 24.3125 C0.52318359 23.49587891 0.48386719 22.67925781 0.44335938 21.83789062 C0.23101997 17.80344189 -0.04447922 13.94252691 -1 10 C-1.680625 10.99 -1.680625 10.99 -2.375 12 C-2.91125 12.66 -3.4475 13.32 -4 14 C-4.66 14 -5.32 14 -6 14 C-2.90009699 3.90882638 -2.90009699 3.90882638 0 0 Z " fill="#FC9696" transform="translate(118,34)"/>
<path d="M0 0 C2.475 0.99 2.475 0.99 5 2 C5 2.66 5 3.32 5 4 C3.35 4.66 1.7 5.32 0 6 C0.33 7.32 0.66 8.64 1 10 C0.01 10 -0.98 10 -2 10 C-1.67 11.32 -1.34 12.64 -1 14 C-5.455 14.495 -5.455 14.495 -10 15 C-10.33 14.34 -10.66 13.68 -11 13 C-10.113125 12.71125 -9.22625 12.4225 -8.3125 12.125 C-3.59824287 9.10075958 -2.13942055 5.04562458 0 0 Z " fill="#A49D91" transform="translate(74,48)"/>
<path d="M0 0 C1.99954746 -0.04254356 4.00041636 -0.04080783 6 0 C7.70492881 1.70492881 7.1280442 3.84534261 7.13894653 6.11901855 C7.1369223 6.83255493 7.13489807 7.54609131 7.1328125 8.28125 C7.13376923 9.00993286 7.13472595 9.73861572 7.13571167 10.48937988 C7.13639335 12.0327971 7.13453988 13.57621717 7.13037109 15.11962891 C7.12502262 17.489974 7.13031642 19.86012959 7.13671875 22.23046875 C7.13605797 23.72656292 7.1347768 25.22265697 7.1328125 26.71875 C7.13483673 27.43228638 7.13686096 28.14582275 7.13894653 28.88098145 C7.11495191 33.88504809 7.11495191 33.88504809 6 35 C4.33382885 35.04063832 2.66611905 35.042721 1 35 C2.32 34.34 3.64 33.68 5 33 C4.96447021 32.10168457 4.92894043 31.20336914 4.89233398 30.27783203 C4.76322758 26.94951643 4.63889727 23.62109412 4.51782227 20.29248047 C4.4644041 18.85100177 4.40907482 17.40959259 4.35180664 15.96826172 C4.26989003 13.89826447 4.19481641 11.82811573 4.12109375 9.7578125 C4.0739624 8.5114502 4.02683105 7.26508789 3.97827148 5.98095703 C4 3 4 3 5 1 C3.35 1 1.7 1 0 1 C0 0.67 0 0.34 0 0 Z " fill="#FDB5B7" transform="translate(120,33)"/>
<path d="M0 0 C0.66 0.33 1.32 0.66 2 1 C-1.07517084 12.52164009 -1.07517084 12.52164009 -3 18 C-5.3125 18.625 -5.3125 18.625 -8 19 C-11 17 -11 17 -11.73046875 14.8359375 C-11.88128906 14.02382813 -12.03210938 13.21171875 -12.1875 12.375 C-12.34605469 11.55773438 -12.50460938 10.74046875 -12.66796875 9.8984375 C-12.77753906 9.27195312 -12.88710937 8.64546875 -13 8 C-12.34 8 -11.68 8 -11 8 C-11 9.65 -11 11.3 -11 13 C-10.34 13 -9.68 13 -9 13 C-8.67 14.32 -8.34 15.64 -8 17 C-7.01 17 -6.02 17 -5 17 C-5 16.34 -5 15.68 -5 15 C-4.34 15 -3.68 15 -3 15 C-3 13.02 -3 11.04 -3 9 C-2.34 9 -1.68 9 -1 9 C-0.67 6.03 -0.34 3.06 0 0 Z " fill="#FDA2A1" transform="translate(116,49)"/>
<path d="M0 0 C2.31 0 4.62 0 7 0 C7 0.66 7 1.32 7 2 C7.99 2.33 8.98 2.66 10 3 C10 3.66 10 4.32 10 5 C11.32 5.33 12.64 5.66 14 6 C13.67 6.66 13.34 7.32 13 8 C10.69 8 8.38 8 6 8 C5.731875 7.360625 5.46375 6.72125 5.1875 6.0625 C4.11332248 3.66868314 4.11332248 3.66868314 1 3 C0.67 2.01 0.34 1.02 0 0 Z " fill="#FB6466" transform="translate(156,58)"/>
<path d="M0 0 C0.33 1.32 0.66 2.64 1 4 C3.64 3.67 6.28 3.34 9 3 C8.625 5.9375 8.625 5.9375 8 9 C4.80455776 10.59772112 1.46830418 10.50722235 -2 10 C-4.5 8.1875 -4.5 8.1875 -6 6 C-6 5.01 -6 4.02 -6 3 C-5.34 3 -4.68 3 -4 3 C-3.67 3.99 -3.34 4.98 -3 6 C-0.29120665 7.35439668 2.00933268 7.06501451 5 7 C5.33 6.34 5.66 5.68 6 5 C4.02 5 2.04 5 0 5 C0 3.35 0 1.7 0 0 Z " fill="#FCA6A9" transform="translate(335,58)"/>
<path d="M0 0 C1.155 0.28875 2.31 0.5775 3.5 0.875 C10.5781584 2.46559739 17.80157889 3.16975266 25 4 C25 4.33 25 4.66 25 5 C23.95199219 5.09087891 23.95199219 5.09087891 22.8828125 5.18359375 C21.97273438 5.26738281 21.06265625 5.35117188 20.125 5.4375 C19.22007813 5.51871094 18.31515625 5.59992188 17.3828125 5.68359375 C14.98889139 5.86989285 14.98889139 5.86989285 13 7 C10.46875 6.58203125 10.46875 6.58203125 7.5 5.8125 C6.5203125 5.57144531 5.540625 5.33039063 4.53125 5.08203125 C2 4 2 4 0.65625 1.88671875 C0.4396875 1.26410156 0.223125 0.64148437 0 0 Z " fill="#ECDBB9" transform="translate(29,62)"/>
<path d="M0 0 C8.25 0 16.5 0 25 0 C21.58591496 3.41408504 17.26949914 3.15422995 12.625 3.1875 C8.02590882 3.15638301 4.3203863 2.53613735 0 1 C0 0.67 0 0.34 0 0 Z " fill="#1E1C17" transform="translate(36,63)"/>
<path d="M0 0 C0.99 0.66 1.98 1.32 3 2 C3.40998743 5.68988683 3.5030616 8.08969806 1.6875 11.375 C-1.06649001 14.02699038 -3.78458438 14.1566997 -7.4375 14.1875 C-8.19933594 14.20167969 -8.96117187 14.21585938 -9.74609375 14.23046875 C-12.23347315 13.97612666 -13.84808106 13.24017196 -16 12 C-16 11.34 -16 10.68 -16 10 C-15.43410156 10.16242188 -14.86820312 10.32484375 -14.28515625 10.4921875 C-11.92825745 11.01594279 -9.84837338 11.13315862 -7.4375 11.125 C-6.67308594 11.12757812 -5.90867187 11.13015625 -5.12109375 11.1328125 C-2.81001505 11.07907384 -2.81001505 11.07907384 0 10 C0 6.7 0 3.4 0 0 Z " fill="#FAA6A5" transform="translate(360,54)"/>
<path d="M0 0 C4.29 0 8.58 0 13 0 C12.67 1.32 12.34 2.64 12 4 C10.35 4.33 8.7 4.66 7 5 C7 4.34 7 3.68 7 3 C5.02 2.34 3.04 1.68 1 1 C1 7.93 1 14.86 1 22 C0.67 22 0.34 22 0 22 C0 14.74 0 7.48 0 0 Z " fill="#FC7375" transform="translate(183,43)"/>
<path d="M0 0 C3.36704285 -0.2295711 5.41370268 -0.33943529 8.375 1.375 C8.91125 1.91125 9.4475 2.4475 10 3 C10 3.66 10 4.32 10 5 C10.66 5 11.32 5 12 5 C12 5.99 12 6.98 12 8 C8.47730515 8.4025937 7.20059192 8.13372795 4.1875 6.125 C3.465625 5.42375 2.74375 4.7225 2 4 C2 3.34 2 2.68 2 2 C1.34 1.34 0.68 0.68 0 0 Z " fill="#C85606" transform="translate(63,24)"/>
<path d="M0 0 C0.99 0.33 1.98 0.66 3 1 C3.33 1.99 3.66 2.98 4 4 C5.49985609 5.66710346 5.49985609 5.66710346 7 7 C6.67 7.99 6.34 8.98 6 10 C3.125 9.75 3.125 9.75 0 9 C-1.4375 7.1875 -1.4375 7.1875 -2 5 C-1.5 1.5 -1.5 1.5 0 0 Z " fill="#F96905" transform="translate(61,25)"/>
<path d="M0 0 C0.33 1.32 0.66 2.64 1 4 C-3.625 7 -3.625 7 -7 7 C-7.33 6.01 -7.66 5.02 -8 4 C-8.99 3.34 -9.98 2.68 -11 2 C-7.17679443 0.57741188 -4.08718695 -0.24042276 0 0 Z " fill="#ECDCBA" transform="translate(70,62)"/>
<path d="M0 0 C1.6415049 3.2830098 0.51888624 6.42545033 0 10 C0.71027344 10.24234375 1.42054688 10.4846875 2.15234375 10.734375 C3.07144531 11.06953125 3.99054688 11.4046875 4.9375 11.75 C5.85402344 12.07484375 6.77054688 12.3996875 7.71484375 12.734375 C10 14 10 14 10.87890625 16.078125 C10.91886719 16.71234375 10.95882812 17.3465625 11 18 C10 19 10 19 6.9375 19.0625 C5.968125 19.041875 4.99875 19.02125 4 19 C4.33 18.34 4.66 17.68 5 17 C6.32 17 7.64 17 9 17 C8.28972656 16.65066406 7.57945312 16.30132812 6.84765625 15.94140625 C5.92855469 15.48636719 5.00945312 15.03132813 4.0625 14.5625 C3.14597656 14.11003906 2.22945312 13.65757813 1.28515625 13.19140625 C-1 12 -1 12 -2 11 C-2.16796875 9.00390625 -2.16796875 9.00390625 -2.1875 6.5625 C-2.20167969 5.75941406 -2.21585938 4.95632812 -2.23046875 4.12890625 C-2 2 -2 2 0 0 Z " fill="#FDA8A6" transform="translate(225,44)"/>
<path d="M0 0 C1.17433594 0.31710938 2.34867188 0.63421875 3.55859375 0.9609375 C10.32450158 2.46447257 17.15860526 2.46167474 24.0625 2.625 C25.4186424 2.66326971 26.77476282 2.70232633 28.13085938 2.7421875 C31.42044104 2.83584107 34.71002612 2.9215686 38 3 C33.2009539 6.19936406 28.01684367 5.32798256 22.375 5.3125 C21.22386719 5.32861328 20.07273437 5.34472656 18.88671875 5.36132812 C11.92342192 5.36529808 6.46481942 4.61211787 0 2 C0 1.34 0 0.68 0 0 Z " fill="#595248" transform="translate(26,59)"/>
<path d="M0 0 C0 0.99 0 1.98 0 3 C-0.99 3.33 -1.98 3.66 -3 4 C-3.33 4.66 -3.66 5.32 -4 6 C-7.0625 6.625 -7.0625 6.625 -10 7 C-10.33 5.35 -10.66 3.7 -11 2 C-7.36576791 -0.32590854 -4.22911669 -0.16265833 0 0 Z " fill="#E86A6A" transform="translate(25,35)"/>
<path d="M0 0 C1.32 0 2.64 0 4 0 C4.33 1.65 4.66 3.3 5 5 C6.65 5 8.3 5 10 5 C9.01 5.66 8.02 6.32 7 7 C5.94895617 8.63495707 4.94011682 10.29883624 4 12 C1.78600697 8.20458337 0.99019802 4.24370579 0 0 Z " fill="#DEC4AB" transform="translate(34,20)"/>
<path d="M0 0 C1.2065625 0.0309375 1.2065625 0.0309375 2.4375 0.0625 C1.1175 0.3925 -0.2025 0.7225 -1.5625 1.0625 C-1.5625 8.3225 -1.5625 15.5825 -1.5625 23.0625 C0.4175 23.7225 2.3975 24.3825 4.4375 25.0625 C4.4375 25.3925 4.4375 25.7225 4.4375 26.0625 C2.0625 26.1875 2.0625 26.1875 -0.5625 26.0625 C-3.11279002 23.51220998 -2.87024348 22.41581837 -3.01171875 18.87109375 C-3.05490234 17.84435547 -3.09808594 16.81761719 -3.14257812 15.75976562 C-3.17802734 14.68404297 -3.21347656 13.60832031 -3.25 12.5 C-3.29705078 11.42041016 -3.34410156 10.34082031 -3.39257812 9.22851562 C-3.61814986 3.3451609 -3.61814986 3.3451609 -3.5625 1.0625 C-2.5625 0.0625 -2.5625 0.0625 0 0 Z " fill="#FDC5C5" transform="translate(184.5625,41.9375)"/>
<path d="M0 0 C-1.65 0.33 -3.3 0.66 -5 1 C-5.33 3.97 -5.66 6.94 -6 10 C-8.375 10.625 -8.375 10.625 -11 11 C-13 9 -13 9 -13.1953125 7.0546875 C-13.13020833 5.03645833 -13.06510417 3.01822917 -13 1 C-11.88941214 3.07309734 -11.02601506 4.88618411 -10.5 7.1875 C-10.335 7.785625 -10.17 8.38375 -10 9 C-9.34 9.33 -8.68 9.66 -8 10 C-7.97421875 9.37351562 -7.9484375 8.74703125 -7.921875 8.1015625 C-7.86515625 7.28429688 -7.8084375 6.46703125 -7.75 5.625 C-7.70359375 4.81289063 -7.6571875 4.00078125 -7.609375 3.1640625 C-7 1 -7 1 -5.140625 -0.3515625 C-3 -1 -3 -1 0 0 Z " fill="#9F8436" transform="translate(57,46)"/>
<path d="M0 0 C-2 1 -2 1 -4.875 0.9375 C-8.79774202 1.00396461 -8.79774202 1.00396461 -12 3 C-12.495 4.175625 -12.99 5.35125 -13.5 6.5625 C-15 10 -15 10 -17.1875 10.9375 C-17.785625 10.958125 -18.38375 10.97875 -19 11 C-18.42415568 8.61435923 -17.77772405 6.33317216 -17 4 C-16.34 4 -15.68 4 -15 4 C-15 3.34 -15 2.68 -15 2 C-10.24068293 -1.49949785 -5.25942234 -3.43885307 0 0 Z " fill="#9D8784" transform="translate(31,23)"/>
<path d="M0 0 C0.66 0 1.32 0 2 0 C2 0.66 2 1.32 2 2 C2.99 2.33 3.98 2.66 5 3 C5 5.31 5 7.62 5 10 C4.67 10 4.34 10 4 10 C4 8.35 4 6.7 4 5 C3.34 5 2.68 5 2 5 C2.33 5.99 2.66 6.98 3 8 C1.68 8.33 0.36 8.66 -1 9 C-1 7.35 -1 5.7 -1 4 C-2.65 4 -4.3 4 -6 4 C-2.25 2 -2.25 2 0 2 C0 1.34 0 0.68 0 0 Z " fill="#FC696B" transform="translate(318,43)"/>
<path d="M0 0 C3.83146596 1.56096761 6.28148054 3.91411305 9 7 C9.6875 9.25 9.6875 9.25 10 11 C10.66 11.33 11.32 11.66 12 12 C10.68 12 9.36 12 8 12 C8 10.68 8 9.36 8 8 C7.34 8 6.68 8 6 8 C5.46375 7.34 4.9275 6.68 4.375 6 C0.8902683 3.0654891 -1.53552728 3.70236849 -6 4 C-6.33 3.34 -6.66 2.68 -7 2 C-3.535 1.505 -3.535 1.505 0 1 C0 0.67 0 0.34 0 0 Z " fill="#957B68" transform="translate(67,21)"/>
<path d="M0 0 C1.9453125 -0.29296875 1.9453125 -0.29296875 4.125 -0.1875 C5.40375 -0.125625 6.6825 -0.06375 8 0 C8 0.66 8 1.32 8 2 C8.66 2.33 9.32 2.66 10 3 C6.42355152 4.2380014 3.66305234 3.74926071 0 3 C0 4.65 0 6.3 0 8 C-0.99 8.33 -1.98 8.66 -3 9 C-2.5020163 5.26512223 -2.12508244 3.18762365 0 0 Z " fill="#FC5A5A" transform="translate(349,43)"/>
<path d="M0 0 C2.5 1.5 2.5 1.5 4 3 C1.36749612 4.31625194 0.19820944 3.74813658 -2.625 3.0625 C-3.44226563 2.86785156 -4.25953125 2.67320313 -5.1015625 2.47265625 C-6.04128906 2.23869141 -6.04128906 2.23869141 -7 2 C-7.33 2.99 -7.66 3.98 -8 5 C-10 5 -12 5 -14 5 C-13 2 -13 2 -10.9375 0.8125 C-7.01334631 -0.27290421 -4.08285131 -0.32403582 0 0 Z " fill="#FC9596" transform="translate(146,42)"/>
<path d="M0 0 C1.9375 0.8125 1.9375 0.8125 4 2 C4.33 2.99 4.66 3.98 5 5 C5.66 5 6.32 5 7 5 C7.33 4.34 7.66 3.68 8 3 C8.66 5.31 9.32 7.62 10 10 C7.03 9.505 7.03 9.505 4 9 C3.34 7.02 2.68 5.04 2 3 C1.34 3 0.68 3 0 3 C0 2.01 0 1.02 0 0 Z " fill="#E66B6A" transform="translate(27,26)"/>
<path d="M0 0 C1.77706209 2.66559313 2.87548273 5.0280615 4 8 C4.99 7.01 5.98 6.02 7 5 C6.67 7.97 6.34 10.94 6 14 C5.01 14 4.02 14 3 14 C0.96006486 9.07015675 -0.40652968 5.42039575 0 0 Z " fill="#FCA09F" transform="translate(250,46)"/>
<path d="M0 0 C0.33 1.32 0.66 2.64 1 4 C2.32 3.67 3.64 3.34 5 3 C5.33 4.65 5.66 6.3 6 8 C5.34 8 4.68 8 4 8 C4 8.66 4 9.32 4 10 C3.01 10 2.02 10 1 10 C-1.42857143 3.71428571 -1.42857143 3.71428571 0 0 Z " fill="#FD595B" transform="translate(107,56)"/>
<path d="M0 0 C1.65 0 3.3 0 5 0 C4.60348083 1.31872662 4.18201309 2.62997101 3.75 3.9375 C3.40195313 5.03384766 3.40195313 5.03384766 3.046875 6.15234375 C2 8 2 8 -0.109375 8.75390625 C-1.04523437 8.87572266 -1.04523437 8.87572266 -2 9 C-2.66 7.68 -3.32 6.36 -4 5 C-3.01 5 -2.02 5 -1 5 C-0.67 3.35 -0.34 1.7 0 0 Z " fill="#B87741" transform="translate(65,45)"/>
<path d="M0 0 C2.31 0 4.62 0 7 0 C8.125 4.75 8.125 4.75 7 7 C5.00116131 7.34022786 3.00109278 7.67329097 1 8 C0.34 8.66 -0.32 9.32 -1 10 C-1 8.68 -1 7.36 -1 6 C0.98 5.67 2.96 5.34 5 5 C5 4.01 5 3.02 5 2 C3.35 2 1.7 2 0 2 C0 1.34 0 0.68 0 0 Z " fill="#FCB1B0" transform="translate(190,42)"/>
<path d="M0 0 C-0.33 1.65 -0.66 3.3 -1 5 C-2.670625 5.2165625 -2.670625 5.2165625 -4.375 5.4375 C-7.82142047 5.78372035 -7.82142047 5.78372035 -10 7 C-9.67 5.68 -9.34 4.36 -9 3 C-8.34 3 -7.68 3 -7 3 C-6.67 2.34 -6.34 1.68 -6 1 C-6.66 0.67 -7.32 0.34 -8 0 C-5.13822943 -1.43088528 -3.06624227 -0.59991697 0 0 Z " fill="#B5716C" transform="translate(50,23)"/>
<path d="M0 0 C2 2 4 4 6 6 C7.68608966 6.07205511 9.37500659 6.08386068 11.0625 6.0625 C11.98160156 6.05347656 12.90070313 6.04445313 13.84765625 6.03515625 C14.55792969 6.02355469 15.26820313 6.01195313 16 6 C16 6.66 16 7.32 16 8 C12.36217368 9.21260877 9.82264001 9.39544552 6 9 C3.1339542 6.75700764 1.40071927 5.14050868 0.1875 1.6875 C0.125625 1.130625 0.06375 0.57375 0 0 Z " fill="#FCACAD" transform="translate(156,59)"/>
<path d="M0 0 C2.8992226 0.46761655 3.86675182 0.86675182 6 3 C6.44959697 7.04637274 6.65196289 9.15244824 4.125 12.4375 C2 14 2 14 0 14 C0 13.34 0 12.68 0 12 C0.495 11.5875 0.99 11.175 1.5 10.75 C3.65847858 8.23177499 3.21374961 6.20624415 3 3 C1.68 2.34 0.36 1.68 -1 1 C-0.67 0.67 -0.34 0.34 0 0 Z " fill="#FCA4A4" transform="translate(236,53)"/>
<path d="M0 0 C1.125 4.75 1.125 4.75 0 7 C-2.64860427 7.59355614 -5.29197322 7.74209269 -8 8 C-7.74438677 5.6568787 -7.40729228 3.32156597 -7 1 C-4.53721199 -0.231394 -2.7204945 -0.07159196 0 0 Z M-4 2 C-4.66 2.66 -5.32 3.32 -6 4 C-5.67 4.99 -5.34 5.98 -5 7 C-3.35 6.34 -1.7 5.68 0 5 C-0.33 4.01 -0.66 3.02 -1 2 C-1.99 2 -2.98 2 -4 2 Z " fill="#FDAFB0" transform="translate(293,46)"/>
<path d="M0 0 C-0.62759865 2.92879371 -1.58622659 5.36095629 -3 8 C-3.99 7.67 -4.98 7.34 -6 7 C-6 5.35 -6 3.7 -6 2 C-6.66 1.67 -7.32 1.34 -8 1 C-5.07175348 0.02391783 -3.04386724 -0.08226668 0 0 Z " fill="#494542" transform="translate(33,2)"/>
<path d="M0 0 C0.33 1.32 0.66 2.64 1 4 C-1.93973291 5.676984 -4.118534 6.29512946 -7.5 6.3125 C-8.62921875 6.33763672 -8.62921875 6.33763672 -9.78125 6.36328125 C-12.52314463 5.91434428 -13.91930826 4.79223221 -16 3 C-15.09636719 3.03480469 -14.19273437 3.06960937 -13.26171875 3.10546875 C-11.49248047 3.14607422 -11.49248047 3.14607422 -9.6875 3.1875 C-8.51574219 3.22230469 -7.34398437 3.25710937 -6.13671875 3.29296875 C-3.00711536 3.28717399 -3.00711536 3.28717399 -1.08203125 1.48828125 C-0.72496094 0.99714844 -0.36789062 0.50601563 0 0 Z " fill="#FDB8B8" transform="translate(299,62)"/>
<path d="M0 0 C0 0.66 0 1.32 0 2 C-2.95664519 3.4783226 -5.74229737 3.06032783 -9 3 C-8.67 4.32 -8.34 5.64 -8 7 C-8.99 6.67 -9.98 6.34 -11 6 C-11.33 4.35 -11.66 2.7 -12 1 C-10.37512529 0.83211627 -8.75009558 0.66573213 -7.125 0.5 C-6.22007812 0.4071875 -5.31515625 0.314375 -4.3828125 0.21875 C-2 0 -2 0 0 0 Z " fill="#FD9E9E" transform="translate(320,55)"/>
<path d="M0 0 C1.65 0 3.3 0 5 0 C5.99 2.64 6.98 5.28 8 8 C8.99 8 9.98 8 11 8 C8.525 9.485 8.525 9.485 6 11 C5.73445313 10.45730469 5.46890625 9.91460937 5.1953125 9.35546875 C4.84210937 8.64003906 4.48890625 7.92460937 4.125 7.1875 C3.77695312 6.47980469 3.42890625 5.77210937 3.0703125 5.04296875 C1.9343514 2.78753582 1.9343514 2.78753582 0 0 Z " fill="#825949" transform="translate(30,23)"/>
<path d="M0 0 C0.66 0 1.32 0 2 0 C3.32 3.96 4.64 7.92 6 12 C5.01 12.33 4.02 12.66 3 13 C2.87882812 12.43410156 2.75765625 11.86820313 2.6328125 11.28515625 C2.38144531 10.18494141 2.38144531 10.18494141 2.125 9.0625 C1.96257813 8.33160156 1.80015625 7.60070312 1.6328125 6.84765625 C1.17038477 4.79299706 1.17038477 4.79299706 -1 4 C-0.67 2.68 -0.34 1.36 0 0 Z " fill="#8D827B" transform="translate(29,11)"/>
<path d="M0 0 C1.32 0.33 2.64 0.66 4 1 C5.125 4.75 5.125 4.75 4 7 C3.34 7 2.68 7 2 7 C1.34 8.32 0.68 9.64 0 11 C-0.66 11 -1.32 11 -2 11 C-2.33 9.68 -2.66 8.36 -3 7 C-1.68 6.34 -0.36 5.68 1 5 C0.67 3.35 0.34 1.7 0 0 Z " fill="#736F6A" transform="translate(69,61)"/>
<path d="M0 0 C0.66 0.33 1.32 0.66 2 1 C2 1.66 2 2.32 2 3 C4.82847776 5.61896089 7.21213403 6.4739075 11 7 C10.34 8.32 9.68 9.64 9 11 C8.01 10.67 7.02 10.34 6 10 C6 9.34 6 8.68 6 8 C5.01 7.67 4.02 7.34 3 7 C3 6.34 3 5.68 3 5 C1.68 4.34 0.36 3.68 -1 3 C-0.67 2.01 -0.34 1.02 0 0 Z " fill="#E27829" transform="translate(64,25)"/>
<path d="M0 0 C2.68433048 2.45091043 3.91789741 4.28241384 4.09765625 8.04296875 C4.06510417 10.02864583 4.03255208 12.01432292 4 14 C3.34 14 2.68 14 2 14 C1.67 14.66 1.34 15.32 1 16 C1.01740234 15.02160156 1.01740234 15.02160156 1.03515625 14.0234375 C1.08470994 9.2238086 0.99413751 4.72215315 0 0 Z " fill="#FDA0A0" transform="translate(150,45)"/>
<path d="M0 0 C0.99 0 1.98 0 3 0 C3.33 2.31 3.66 4.62 4 7 C2.68 7 1.36 7 0 7 C0 6.34 0 5.68 0 5 C-0.99 5.33 -1.98 5.66 -3 6 C-3 5.34 -3 4.68 -3 4 C-2.34 4 -1.68 4 -1 4 C-0.67 2.68 -0.34 1.36 0 0 Z " fill="#E4CDB0" transform="translate(31,6)"/>
<path d="M0 0 C0.56847656 0.26554687 1.13695313 0.53109375 1.72265625 0.8046875 C6.43192114 2.95884206 10.98231131 4.71888799 16 6 C16 6.33 16 6.66 16 7 C10.01488629 6.65697965 5.24882694 6.17692157 0 3 C0 2.01 0 1.02 0 0 Z " fill="#928772" transform="translate(28,63)"/>
<path d="M0 0 C-0.375 1.9375 -0.375 1.9375 -1 4 C-3.95664519 5.4783226 -6.74229737 5.06032783 -10 5 C-10 4.34 -10 3.68 -10 3 C-3.375 0 -3.375 0 0 0 Z " fill="#FB5E5F" transform="translate(299,61)"/>
<path d="M0 0 C0 1.32 0 2.64 0 4 C-2.875 3.6875 -2.875 3.6875 -6 3 C-6.66 2.01 -7.32 1.02 -8 0 C-4.71023192 -1.09658936 -3.28696233 -0.79953138 0 0 Z " fill="#FB8686" transform="translate(249,43)"/>
<path d="M0 0 C0.33 0.66 0.66 1.32 1 2 C-1.23407889 5.35111834 -2.26215824 6.81553956 -6.25 7.8125 C-7.61125 7.9053125 -7.61125 7.9053125 -9 8 C-9.33 6.35 -9.66 4.7 -10 3 C-9.34 3 -8.68 3 -8 3 C-8 3.99 -8 4.98 -8 6 C-5.50447516 5.21869929 -5.50447516 5.21869929 -3 4 C-2.67 3.01 -2.34 2.02 -2 1 C-1.34 0.67 -0.68 0.34 0 0 Z " fill="#FDAAAB" transform="translate(272,60)"/>
<path d="M0 0 C0.33 2.31 0.66 4.62 1 7 C0.01 7.33 -0.98 7.66 -2 8 C-2 6.68 -2 5.36 -2 4 C-3.32 3.34 -4.64 2.68 -6 2 C-3 0 -3 0 0 0 Z " fill="#FC5858" transform="translate(360,54)"/>
<path d="M0 0 C1.65 0 3.3 0 5 0 C5.33 1.65 5.66 3.3 6 5 C4.02 5 2.04 5 0 5 C0 3.35 0 1.7 0 0 Z " fill="#FC5C5D" transform="translate(200,35)"/>
<path d="M0 0 C0.33 0 0.66 0 1 0 C1.07347656 1.01320312 1.07347656 1.01320312 1.1484375 2.046875 C1.22320312 2.93890625 1.29796875 3.8309375 1.375 4.75 C1.44460937 5.63171875 1.51421875 6.5134375 1.5859375 7.421875 C1.99850055 9.99066382 2.71160957 11.75841015 4 14 C3.01 14 2.02 14 1 14 C-1.105184 10.842224 -1.25289344 10.04602866 -1.1875 6.4375 C-1.18105469 5.65246094 -1.17460937 4.86742187 -1.16796875 4.05859375 C-1 2 -1 2 0 0 Z " fill="#FB9D9E" transform="translate(136,48)"/>
<path d="M0 0 C2.97 0.495 2.97 0.495 6 1 C5.67 2.65 5.34 4.3 5 6 C2.36 6.33 -0.28 6.66 -3 7 C-3 6.01 -3 5.02 -3 4 C-1.02 4 0.96 4 3 4 C3 3.01 3 2.02 3 1 C2.01 0.67 1.02 0.34 0 0 Z " fill="#FBAEAF" transform="translate(338,42)"/>
<path d="M0 0 C0.33 0.99 0.66 1.98 1 3 C1.66 3 2.32 3 3 3 C2.67 4.65 2.34 6.3 2 8 C1.34 7.67 0.68 7.34 0 7 C-0.99 7.33 -1.98 7.66 -3 8 C-2.45276317 4.62537285 -1.9451 2.91765 0 0 Z " fill="#AA6867" transform="translate(14,31)"/>
<path d="M0 0 C0.66 0 1.32 0 2 0 C2.50615298 1.26839526 3.00469099 2.53983102 3.5 3.8125 C3.91765625 4.87404297 3.91765625 4.87404297 4.34375 5.95703125 C5 8 5 8 5 11 C4.34 11 3.68 11 3 11 C2.87625 10.195625 2.7525 9.39125 2.625 8.5625 C2.315625 7.2940625 2.315625 7.2940625 2 6 C1.34 5.67 0.68 5.34 0 5 C0.33 4.01 0.66 3.02 1 2 C0.34 1.67 -0.32 1.34 -1 1 C-0.67 0.67 -0.34 0.34 0 0 Z " fill="#7F7A70" transform="translate(32,0)"/>
<path d="M0 0 C1.875 0.1875 1.875 0.1875 4 1 C5.25 3.5625 5.25 3.5625 6 6 C6.66 6 7.32 6 8 6 C8.33 7.32 8.66 8.64 9 10 C5.58841744 8.86280581 4.88145399 7.95657056 3 5 C3 4.34 3 3.68 3 3 C2.01 2.67 1.02 2.34 0 2 C0 1.34 0 0.68 0 0 Z " fill="#7D776E" transform="translate(15,47)"/>
<path d="M0 0 C0.639375 0.2475 1.27875 0.495 1.9375 0.75 C2.2675 1.74 2.5975 2.73 2.9375 3.75 C1.9475 5.235 1.9475 5.235 0.9375 6.75 C0.2775 6.75 -0.3825 6.75 -1.0625 6.75 C-1.0625 6.09 -1.0625 5.43 -1.0625 4.75 C-0.4025 4.75 0.2575 4.75 0.9375 4.75 C0.6075 4.09 0.2775 3.43 -0.0625 2.75 C-2.7025 2.75 -5.3425 2.75 -8.0625 2.75 C-2.0625 -0.25 -2.0625 -0.25 0 0 Z " fill="#FBB4B4" transform="translate(321.0625,60.25)"/>
<path d="M0 0 C0.99 1.32 1.98 2.64 3 4 C6.60992379 3.34414811 6.60992379 3.34414811 10 2 C9.3125 3.9375 9.3125 3.9375 8 6 C5.5625 6.875 5.5625 6.875 3 7 C2.01 6.34 1.02 5.68 0 5 C-0.1875 2.375 -0.1875 2.375 0 0 Z " fill="#FCB8B7" transform="translate(248,61)"/>
<path d="M0 0 C0.33 1.32 0.66 2.64 1 4 C3.64 3.67 6.28 3.34 9 3 C8.67 4.98 8.34 6.96 8 9 C7.34 7.68 6.68 6.36 6 5 C4.02 5 2.04 5 0 5 C0 3.35 0 1.7 0 0 Z " fill="#FCC3C5" transform="translate(335,58)"/>
<path d="M0 0 C0.99 0 1.98 0 3 0 C3.25 2.3125 3.25 2.3125 3 5 C1 6.8125 1 6.8125 -1 8 C-0.67 5.36 -0.34 2.72 0 0 Z " fill="#D36563" transform="translate(34,37)"/>
<path d="M0 0 C1.010625 0.0825 2.02125 0.165 3.0625 0.25 C3.7225 1.24 4.3825 2.23 5.0625 3.25 C2.7525 3.25 0.4425 3.25 -1.9375 3.25 C-2.2675 4.9 -2.5975 6.55 -2.9375 8.25 C-3.2675 8.25 -3.5975 8.25 -3.9375 8.25 C-3.97991723 5.91705225 -3.97842937 3.58297433 -3.9375 1.25 C-2.9375 0.25 -2.9375 0.25 0 0 Z " fill="#FDBAB8" transform="translate(95.9375,32.75)"/>
<path d="M0 0 C0.99 0.33 1.98 0.66 3 1 C-0.44615385 5.8 -0.44615385 5.8 -3.25 6.8125 C-4.11625 6.9053125 -4.11625 6.9053125 -5 7 C-2.25 1.125 -2.25 1.125 0 0 Z " fill="#E46D6C" transform="translate(21,24)"/>
<path d="M0 0 C0.99 0 1.98 0 3 0 C3.12375 0.94875 3.2475 1.8975 3.375 2.875 C3.71687177 6.08667191 3.71687177 6.08667191 6 8 C4.35 8 2.7 8 1 8 C0.67 5.36 0.34 2.72 0 0 Z " fill="#787878" transform="translate(45,14)"/>
<path d="M0 0 C0.66 0.33 1.32 0.66 2 1 C-0.20979308 3.81939117 -2.40062046 6.53058944 -5 9 C-4.50769231 3.46153846 -4.50769231 3.46153846 -1.9375 1.125 C-1.298125 0.75375 -0.65875 0.3825 0 0 Z " fill="#FD9D9D" transform="translate(161,43)"/>
<path d="M0 0 C0 1.65 0 3.3 0 5 C-0.99 4.01 -1.98 3.02 -3 2 C-3.99 2.33 -4.98 2.66 -6 3 C-6.66 2.67 -7.32 2.34 -8 2 C-8.33 2.99 -8.66 3.98 -9 5 C-9 3.68 -9 2.36 -9 1 C-5.92677456 0.08941469 -3.19902639 -0.08886184 0 0 Z " fill="#9B663B" transform="translate(76,43)"/>
<path d="M0 0 C2.4375 1.1875 2.4375 1.1875 5 3 C5.8125 5.6875 5.8125 5.6875 6 8 C5.34 8 4.68 8 4 8 C0 2.58823529 0 2.58823529 0 0 Z " fill="#C55B5B" transform="translate(28,23)"/>
<path d="M0 0 C2 3.75 2 3.75 2 6 C-0.31 6.33 -2.62 6.66 -5 7 C-4.67 6.01 -4.34 5.02 -4 4 C-3.01 4.33 -2.02 4.66 -1 5 C-0.67 3.35 -0.34 1.7 0 0 Z " fill="#FBC0C0" transform="translate(99,61)"/>
<path d="M0 0 C2.64 0 5.28 0 8 0 C7.67 0.99 7.34 1.98 7 3 C5.02 3 3.04 3 1 3 C0.67 2.01 0.34 1.02 0 0 Z " fill="#FC5757" transform="translate(333,63)"/>
<path d="M0 0 C0.66 0 1.32 0 2 0 C1.67 1.65 1.34 3.3 1 5 C-1.64 5.33 -4.28 5.66 -7 6 C-3.375 3 -3.375 3 0 3 C0 2.01 0 1.02 0 0 Z " fill="#8B3E09" transform="translate(77,33)"/>
<path d="M0 0 C1.32 0 2.64 0 4 0 C3.67 0.66 3.34 1.32 3 2 C2.34 2 1.68 2 1 2 C1.33 3.98 1.66 5.96 2 8 C0.68 7.34 -0.64 6.68 -2 6 C-1.125 1.125 -1.125 1.125 0 0 Z " fill="#FBB8B7" transform="translate(224,59)"/>
<path d="M0 0 C2.475 0.99 2.475 0.99 5 2 C5 2.66 5 3.32 5 4 C4.030625 4.12375 3.06125 4.2475 2.0625 4.375 C0.5465625 4.684375 0.5465625 4.684375 -1 5 C-1.33 5.66 -1.66 6.32 -2 7 C-1.125 1.125 -1.125 1.125 0 0 Z " fill="#8E8479" transform="translate(74,48)"/>
<path d="M0 0 C-1.0975223 2.99324263 -1.67682892 3.84610901 -4.625 5.25 C-5.40875 5.4975 -6.1925 5.745 -7 6 C-5.52522876 2.59668175 -4.14385429 0 0 0 Z " fill="#FB999A" transform="translate(287,43)"/>
<path d="M0 0 C8.19256018 -0.4726477 8.19256018 -0.4726477 11.5625 1.5 C12.036875 1.995 12.51125 2.49 13 3 C12.67 3.66 12.34 4.32 12 5 C10.68 4.34 9.36 3.68 8 3 C8 2.34 8 1.68 8 1 C5.36 1 2.72 1 0 1 C0 0.67 0 0.34 0 0 Z " fill="#FDC6C5" transform="translate(287,42)"/>
<path d="M0 0 C0 2.31 0 4.62 0 7 C-1.9375 6.625 -1.9375 6.625 -4 6 C-4.33 5.34 -4.66 4.68 -5 4 C-1.125 0 -1.125 0 0 0 Z " fill="#D4A711" transform="translate(62,42)"/>
<path d="M0 0 C1.2065625 0.0309375 1.2065625 0.0309375 2.4375 0.0625 C2.7675 1.0525 3.0975 2.0425 3.4375 3.0625 C0.4675 2.5675 0.4675 2.5675 -2.5625 2.0625 C-2.5625 3.7125 -2.5625 5.3625 -2.5625 7.0625 C-2.8925 7.0625 -3.2225 7.0625 -3.5625 7.0625 C-3.60504356 5.06295254 -3.60330783 3.06208364 -3.5625 1.0625 C-2.5625 0.0625 -2.5625 0.0625 0 0 Z " fill="#FBAAAA" transform="translate(260.5625,41.9375)"/>
<path d="M0 0 C1.875 0.3125 1.875 0.3125 4 1 C4.66 1.99 5.32 2.98 6 4 C6.99 4 7.98 4 9 4 C9 4.66 9 5.32 9 6 C5.21213403 5.4739075 2.82847776 4.61896089 0 2 C0 1.34 0 0.68 0 0 Z " fill="#F46805" transform="translate(65,26)"/>
<path d="M0 0 C2.375 0.3125 2.375 0.3125 5 1 C5.66 1.99 6.32 2.98 7 4 C3 4 3 4 1.25 2.5625 C0 1 0 1 0 0 Z " fill="#BF9304" transform="translate(51,27)"/>
<path d="M0 0 C3.875 1.875 3.875 1.875 5 3 C5.04063832 4.66617115 5.042721 6.33388095 5 8 C3.5 6.625 3.5 6.625 2 5 C2 4.34 2 3.68 2 3 C1.34 3 0.68 3 0 3 C0 2.01 0 1.02 0 0 Z " fill="#F77173" transform="translate(27,26)"/>
<path d="M0 0 C0.66 0 1.32 0 2 0 C2.66 2.97 3.32 5.94 4 9 C3.34 9 2.68 9 2 9 C1.34 6.03 0.68 3.06 0 0 Z " fill="#6E645D" transform="translate(37,16)"/>
<path d="M0 0 C4.455 0.99 4.455 0.99 9 2 C5 3 5 3 1 3 C0.67 2.01 0.34 1.02 0 0 Z " fill="#D9CAAB" transform="translate(29,62)"/>
<path d="M0 0 C3.55780196 0.60990891 6.6828589 1.5783681 10 3 C10 3.33 10 3.66 10 4 C7.69 4 5.38 4 3 4 C3 3.01 3 2.02 3 1 C1.68 1.33 0.36 1.66 -1 2 C-0.67 1.34 -0.34 0.68 0 0 Z " fill="#FBACAD" transform="translate(345,59)"/>
<path d="M0 0 C1.2065625 0.0309375 1.2065625 0.0309375 2.4375 0.0625 C2.1075 1.3825 1.7775 2.7025 1.4375 4.0625 C0.1175 4.0625 -1.2025 4.0625 -2.5625 4.0625 C-2.8925 3.0725 -3.2225 2.0825 -3.5625 1.0625 C-2.5625 0.0625 -2.5625 0.0625 0 0 Z " fill="#FC5D5D" transform="translate(193.5625,42.9375)"/>
<path d="M0 0 C2.97 0.495 2.97 0.495 6 1 C4.75 2.5625 4.75 2.5625 3 4 C0.8125 3.6875 0.8125 3.6875 -1 3 C-0.67 2.01 -0.34 1.02 0 0 Z " fill="#EBB503" transform="translate(38,41)"/>
<path d="M0 0 C0.66 0.66 1.32 1.32 2 2 C1.01 2.33 0.02 2.66 -1 3 C-0.67 4.32 -0.34 5.64 0 7 C-1.32 7 -2.64 7 -4 7 C-4 6.01 -4 5.02 -4 4 C-3.34 4 -2.68 4 -2 4 C-2 3.34 -2 2.68 -2 2 C-1.34 2 -0.68 2 0 2 C0 1.34 0 0.68 0 0 Z " fill="#B1B0AB" transform="translate(75,51)"/>
<path d="M0 0 C0.66 0 1.32 0 2 0 C2 0.99 2 1.98 2 3 C2.99 3 3.98 3 5 3 C5 3.66 5 4.32 5 5 C3.35 4.67 1.7 4.34 0 4 C-0.33 4.66 -0.66 5.32 -1 6 C-0.67 4.02 -0.34 2.04 0 0 Z " fill="#DBAE25" transform="translate(39,34)"/>
<path d="M0 0 C0.99 0.495 0.99 0.495 2 1 C1.01 1.495 1.01 1.495 0 2 C0 1.34 0 0.68 0 0 Z " fill="#FFFFFF" transform="translate(42,18)"/>
</svg>
