<?xml version="1.0" encoding="UTF-8"?>
<svg version="1.1" viewBox="0 0 2000 2000" width="1280" height="1280" xmlns="http://www.w3.org/2000/svg">
<path transform="translate(0)" d="m0 0h2e3v2e3h-2e3z" fill="#FEFEFD"/>
<path transform="translate(321,839)" d="m0 0h8l3 5 10 36 15 53 3 11 5-3 7-6 1-7 9-10 4-2 5 1 7 5 2 6-1 8h10l10 4 8-8 14-7 4-1h22l11 4 9 8 6 10 4 11v2l6 2 4 4 3 11 2 4v8l5 2 2 6v8l-4 6-3 1v14l-2 7-4 3-4-1-4-6-4-1-8 24-5 10-10 11-3 3 7 2 7 5 2 4-1 9-9 9-6 7-12 6-22 6-25 3-12 1h-45l-36-4-19-5-14-7-5-5-2-3v-6l7-8 13-6 15-4h2l-1-2-12-6-10-9-12-18-8-11-2-4-4-2-13-8-3-4v-5l2-1 2 1-4-6v-8l-3-5-1-4v-14l5-10 5-12 6-12 4-5 13-9 13-5h15l13 4 9 7 3 2-12-36-12-38-2-7v-5l6-5 5-2z" fill="#492118"/>
<path transform="translate(267 1e3)" d="m0 0 4 1 4 6 7 15 6 4 5-3 4-5 7-13 5 1 3 9 2 19 3 3h6l4-5 3-7 2-14 4-2 9 3 6 3 5-1 10 2 3 9 4 19 5 10 7 4 6-1 4-8 3-14 2-15 4-2 9-2 5-2 5 1 7 7 6 7 7 4 4 9 5 3 5-1 5-6 2-12 2-15 1-2 4 1 4 3 5-1 3-3 1-7 4 1 6 9 2 4v6l-4 5-7 18-5 12-11 12-14 7-11 3-15 1h-69l-26-2-20-4-12-6-10-9-10-15-6-10-9-9-15-10-1-5h6l6-5z" fill="#FBDEB2"/>
<path transform="translate(575,967)" d="m0 0h8l7 2 8 9 8 16 11 27 8 25 6 19 2 1 8-27 10-28 10-23 8-14 5-5 7-2h13l2 1-2 30v68l2 23v7h-16l-3-1-3-5-1-21-1-65-5 12-7 19-14 45-5 14-2 2h-11l-5-3-8-16-11-31-7-20-7-19-1-4h-2l1 71 2 16v6h-15l-4-2-2-10v-67l-1-34-2-14 1-1z" fill="#FE6365"/>
<path transform="translate(249,1009)" d="m0 0 2 1 2 6 11 7 10 9 7 9 9 15 9 10 10 6 9 3 24 4 18 1h69l15-1 16-5 9-5 7-7 4-6 6-16 3-2-2 11-6 12-10 11-3 3 7 2 7 5 2 4-1 9-9 9-6 7-12 6-22 6-25 3-12 1h-45l-36-4-19-5-14-7-5-5-2-3v-6l7-8 13-6 15-4h2l-1-2-12-6-10-9-12-18-8-11-2-4-4-2-13-8-3-4v-5z" fill="#492118"/>
<path transform="translate(879,953)" d="m0 0h16l6 3 1 3v25l-1 41v34l2 28v9h-16l-4-5-7 1-6 4-10 2-11-1-10-5-7-6-7-10-4-10-1-5v-22l4-13 7-11 8-7 12-5 5-1h8l12 3 5 2z" fill="#FE6365"/>
<path transform="translate(371,939)" d="m0 0 4 1 7 6 5 1 7-3 6-5h9l9 5 5 4 7 11 10 25v9l-13-1-4-1h-11l-7 3 9-1 6-1 13 3 7 1 3 6 1 7v11l-1 7-1 1h-5l-5-5-5-6-4-3h-8l-15 5-2 3-3 20-4 13-6 2-5-3-5-8-6-26-3-5-2-1-13-1-12-5 2-4 2-3 1-5h19l14 7 9-1 8-4v-1l-14 4-9-3-8-4-15-1-4-2 1-11 2-16 6-9 4-5h2l1-3z" fill="#F58259"/>
<path transform="translate(291,922)" d="m0 0h12l10 3 10 6 5 5 4 5 4 9 3 13 5 9v4l-9-1-18-4-7 1-9 1v2l18-1 19 4 4 2-1 17-8 11-3 4-2 14-4 9h-2v2l-5-2-2-5-2-17-3-7-3-2-5 1-8 16-6 5-6-7-9-18-5-2-6 4-4 6h-3l-5-16-3-6-1-4v-8l2-2 10-1-9-1 1-4 5-12 4-9 6-9 8-7 12-6z" fill="#FD6365"/>
<path transform="translate(756 1e3)" d="m0 0h8l11 2 12 6 5 4 7 10 4 9 2 9v15l-3 13-6 11-5 6-11 7-10 3-14 1-14-3-10-6-7-7-7-14-2-7v-22l3-11 6-10 5-6 10-6 9-3z" fill="#FE6365"/>
<path transform="translate(1282 1e3)" d="m0 0 14 1 3 1 1 2v10l-3 14-7 22-9 21-8 13-6 7-6 3h-13l-3-10-7-26-2-3-11 22-8 11-6 5-3 1h-13l-9-34-8-23-8-18-6-11v-2l12-5h7l5 5 8 19 14 43h2l6-15 5-15 3-13 2-23 1-1h15l3 3v14l2 10 12 35 2 5 3-3 7-18 5-19 2-14 1-13z" fill="#FE6365"/>
<path transform="translate(443,927)" d="m0 0h26l10 5 8 9 6 11 1 7h2l4 4 3 1 3 5-1 5-25 9-7 1-1 2 16-3 13-4h6l1 1 1 29v17l-2 5-5-1-4-6-1-8-4-8-5-6h-5l-1 1-1 7-3 3-5-2-5-3h-5l-2 18-1 12-4 6-3 1-5-3-3-6v-8l2-7v-15l-3-9v-9l11-1v-2l-10-1-4-4-6-15-5-11-7-11 1-5 11-8z" fill="#F58159"/>
<path transform="translate(1355 1e3)" d="m0 0h8l10 2 9 5 7 8 3 8v13l-4 8-8 7-13 4-7 1h-23l-1 2 3 10 4 6v2l5 2 8 3h8l9-3 6-5 5 1 5 6v6l-8 6-10 3-15 1-14-3-11-6-7-6-7-11-3-11-1-14 2-13 4-9 6-9 11-8 12-5z" fill="#FE6365"/>
<path transform="translate(1448 1e3)" d="m0 0h10l9 2 8 4 8 9 3 7 1 9-3 10-7 8-8 4-15 3h-24l1 7 5 10 7 6 6 2h8l8-2 8-6 2-1 7 6 2 6-4 5-10 5-11 2h-11l-12-3-11-6-6-5-7-10-4-13v-21l4-13 6-9 7-7 14-7z" fill="#FE6365"/>
<path transform="translate(1604 1e3)" d="m0 0h13l9 2 8 4 5 5 2 4-1 5-7 6-6 2-7-8-7-3h-12l-5 3-2 3v7l5 5 10 4 18 5 8 5 6 8 2 7v9l-4 8-5 5-5 4-9 4-9 2h-13l-16-4-8-6-2-3v-7l5-6 4-3 4 2 5 6 6 3 4 1h15l6-4 1-1v-7l-2-4-6-2-26-8-8-6-4-5-2-6v-15l4-8 8-7 9-4z" fill="#FE6365"/>
<path transform="translate(1119 1e3)" d="m0 0h14l13 4 6 4 3 4 1 7-8 7-5 2-5-5-6-5-4-1h-11l-5 2-3 4v7l5 5 7 3 19 5 9 5 6 7 3 10-1 9-5 10-8 6-9 4-10 2h-13l-15-4-6-4-4-5v-6l4-6 5-4 4 2 5 6 6 3 4 1h15l6-3 1-2v-7l-5-5-16-5-15-5-8-7-4-9v-15l4-8 8-7 9-4z" fill="#FE6465"/>
<path transform="translate(466,1075)" d="m0 0 11 6 4 5v7l-4 5-12 6-13 4-23 4-12 1h-28l-2-2-10-1-1 2h10v1h-13l-5-1-1-3-31-7-14-5-13-8-2-1 1-4 7-6 6 1 16 7 15 4 22 3h29l24-3 15-5 20-9z" fill="#FBDBAE"/>
<path transform="translate(1511,984)" d="m0 0 20 1 1 1 1 17h29v10l-5 5-8 1h-17v44l2 12 3 5v2l9 1 10-4 4 1 2 5v5l-6 5-8 3h-12l-11-4-5-4-6-10-2-7-2-54h-17v-8l3-5 6-2 8-1v-18z" fill="#FE6365"/>
<path transform="translate(757,1016)" d="m0 0 9 1 7 4 5 6 4 8 2 9v15l-4 13-7 8-6 3h-13l-6-3-6-7-5-13-1-6v-13l2-9 5-8 7-6z" fill="#FEFDF9"/>
<path transform="translate(963 1e3)" d="m0 0h13l4 3v9l-5 8-14-1-8 4-3 1-2 4-1 9v26l3 21 1 8-3 1h-14l-6-5-1-2-1-52-1-32 1-1h17l4 6 1 3 4-1 9-8z" fill="#FE6365"/>
<path transform="translate(860,1016)" d="m0 0h8l10 3 3 3v51l-3 5-6 4-3 1h-11l-7-4-4-5-5-11-2-9v-13l2-9 6-9 6-5z" fill="#FEFDF9"/>
<path transform="translate(997 1e3)" d="m0 0h14l6 3 3 5v10l-1 14v36l3 17 1 6-1 1h-17l-4-2-3-7z" fill="#FE6365"/>
<path transform="translate(327,850)" d="m0 0h4l6 21 3 11 1 4 5 17v2l-7 3-5 1h-7v2l8-2 12-2 5 17-1 2-12 3h-7l-4-10-9-28-1-4-6-17 1-4h-2l-3-10 16-4z" fill="#FBDAAD"/>
<path transform="translate(1448,1016)" d="m0 0 9 1 5 4 3 5v9l-4 5-5 3-10 2h-17l-1-1 1-9 5-10 8-7z" fill="#FEFBF6"/>
<path transform="translate(1354,1016)" d="m0 0 8 1 6 4 3 5v8l-4 6-5 3-10 2h-17l-1-6 4-11 7-8 5-3z" fill="#FEFCF6"/>
<path transform="translate(327,850)" d="m0 0h4l6 21 3 11v3l-11 1h-11l-4-10-2-8 1-2h-2l-3-10 16-4z" fill="#FBDDB0"/>
<path transform="translate(1e3 968)" d="m0 0 8 1 6 5 3 7-1 6-8 7-2 1h-8l-6-4-3-4-1-8 4-7z" fill="#FE6465"/>
<path transform="translate(303,923)" d="m0 0 8 1 9 5 6 4 6 8 4 9 3 13 5 9v4l-9-1-18-4-7 1h-8l1-2h4v-2l3-1 2-2 4 1h4l9 3 1 2 3-1-1-8-2-3v-4h-2l-7-14-10-12-2-2-3-2z" fill="#F57F5A"/>
<path transform="translate(348,928)" d="m0 0h5l3 10-1 5 3 2-2 5-7 6-5 8h-2l-4-13v-5l-3-6-2-9z" fill="#FBDCAF"/>
<path transform="translate(386,920)" d="m0 0h6l5 6v12l-8 7-7-1-7-8v-7l2-3 5-3z" fill="#FD6A67"/>
<path transform="translate(345,907)" d="m0 0h2l5 17-1 2-12 3h-7l-4-10-1-7 2-2z" fill="#FBDBAF"/>
<path transform="translate(327,850)" d="m0 0h4l3 10v5l-15 3h-6v-2h-2l-3-10 16-4z" fill="#FBDAAD"/>
<path transform="translate(349,943)" d="m0 0 8 1 1 3-5 5-6 7-3 5h-2l-4-13v-6l9-1z" fill="#F2C99E"/>
<path transform="translate(305,1089)" d="m0 0 4 2 10 6 12 5 15 4 17 3 2 1v2l-13-1-19-4-15-5-9-6-4-5z" fill="#F9C498"/>
<path transform="translate(333,978)" d="m0 0 7 1 2 1-1 17-7 10-2-1 1-4v-12l1-10z" fill="#F58159"/>
<path transform="translate(460,931)" d="m0 0 6 1 9 6 1 5-2 1-11-8-3-3z" fill="#492118"/>
<path transform="translate(311,930)" d="m0 0 5 3 4 6 5 8 4 8h-3l-5-8-6-10-4-4z" fill="#492118"/>
<path transform="translate(512,990)" d="m0 0 4 3 1 3v9l-3 2-2-2z" fill="#FEF4EA"/>
<path transform="translate(379,888)" d="m0 0 3 1 1 2 1 19 1 5h-3l-1-2-1-19-2-5z" fill="#492118"/>
<path transform="translate(389,920)" d="m0 0 4 1 4 5-1 3-3 2-2-4h-4v-5z" fill="#F6835E"/>
<path transform="translate(391,937)" d="m0 0 4 1-2 4-4 3-7-1-2-4 7 2 1-2h2z" fill="#F77A5C"/>
<path transform="translate(333,860)" d="m0 0h1v5l-15 3h-6v-2l16-3h4z" fill="#D9724E"/>
<path transform="translate(317,946)" d="m0 0 5 1 3 6v2l-3 1-5-3z" fill="#F58059"/>
<path transform="translate(312,974)" d="m0 0 13 1 4 2-3 1-9-1-15-1v-1z" fill="#F58259"/>
<path transform="translate(310,933)" d="m0 0h2l5 6-1 3-2 1-3-2v-2l-2-1z" fill="#F67D5A"/>
<path transform="translate(329,885)" d="m0 0h9l3 2-9 1h-9l-5-1v-1z" fill="#F58259"/>
<path transform="translate(346,926)" d="m0 0 7 1v1l-14 3h-6l-1-2z" fill="#CE6A4B"/>
<path transform="translate(405,946)" d="m0 0 4 1 10 10-1 2-5-5-8-6z" fill="#492118"/>
<path transform="translate(344,905)" d="m0 0 2 2-4 2-15 2v-2l12-2z" fill="#914933"/>
</svg>
